<?xml version="1.0" encoding="utf-8"?>
<!-- Generator: Adobe Illustrator 13.0.2, SVG Export Plug-In . SVG Version: 6.00 Build 14948)  -->
<!DOCTYPE svg PUBLIC "-//W3C//DTD SVG 1.1//EN" "http://www.w3.org/Graphics/SVG/1.1/DTD/svg11.dtd">
<svg version="1.1" id="Layer_1" xmlns="http://www.w3.org/2000/svg" xmlns:xlink="http://www.w3.org/1999/xlink" x="0px" y="0px"
	 width="100px" height="100px" viewBox="0 0 100 100" enable-background="new 0 0 100 100" xml:space="preserve">
<rect fill="none" width="100" height="100"/>
<path fill="#FFFFFF" d="M85.223,46.033c-0.313-1.744-1.096-3.305-2.231-4.6c1.738-2.016,2.64-4.78,2.115-7.688
	c-0.894-4.942-5.604-8.294-10.58-7.596c-3.262-0.582-7.237,3.528-7.237,3.528s-0.239-0.382-0.718-0.925
	c2.733-2.864,7.643-9.041,6.768-16.521c-8.422,0.046-14.247,9.235-15.555,11.583c-0.678-5.177-3.361-11.465-8.491-14.731
	c-4.132,3.598-5.955,7.909-6.79,11.74c0.16-0.931-1.533-3.415-1.917-4.207c-0.868-1.539-1.79-2.929-3.006-4.174
	c-1.264-1.346-8.482-7.146-9.858-3.418c-0.354,1.03,0.371,2.025,1.35,2.529c1.518,0.856,3.186,1.515,4.651,2.516
	c1.513,1.104,2.725,2.595,3.841,4.138c1.598,2.283,2.847,4.856,3.849,7.433c0.478,1.238,0.86,2.277,1.042,3.659
	c0.034,0.469,0.064,1.553,0.292,2.181c-0.042,0.019-0.083,0.035-0.126,0.053c-7.674-7.679-18.66-7.833-24.956-4.898
	c1.076,3.867,3.72,6.639,6.361,8.528c-0.698,0.135-1.148,0.319-1.148,0.319l-0.482,0.087c-5.04,0.911-8.454,5.831-7.545,10.87
	c0.42,2.325,1.66,4.203,3.315,5.605c-1.061,1.892-1.564,4.083-1.145,6.411c0.649,3.583,3.244,6.319,6.51,7.231
	c-0.452,1.379-0.498,2.79-0.218,4.34c0.841,4.652,5.029,7.896,9.691,7.657l0.157,0.872c0.841,4.65,5.029,7.896,9.689,7.657
	c1.21,4.484,5.717,7.274,10.369,6.432c2.807-0.507,5.1-2.222,6.397-4.46c1.998,1.643,4.746,2.446,7.556,1.938
	c4.651-0.84,7.896-5.027,7.656-9.688c4.448-1.404,7.239-5.909,6.396-10.564c-0.086-0.482-0.157-0.868-0.342-1.339
	c3.357-1.905,5.265-5.751,4.547-9.725c-0.332-1.84-1.229-3.481-2.478-4.856C84.786,51.915,85.768,49.037,85.223,46.033z"/>
</svg>
