<?xml version="1.0" encoding="utf-8"?>
<!-- Generator: Adobe Illustrator 13.0.2, SVG Export Plug-In . SVG Version: 6.00 Build 14948)  -->
<!DOCTYPE svg PUBLIC "-//W3C//DTD SVG 1.1//EN" "http://www.w3.org/Graphics/SVG/1.1/DTD/svg11.dtd">
<svg version="1.1" id="Layer_1" xmlns="http://www.w3.org/2000/svg" xmlns:xlink="http://www.w3.org/1999/xlink" x="0px" y="0px"
	 width="100px" height="100px" viewBox="0 0 100 100" enable-background="new 0 0 100 100" xml:space="preserve">
<rect fill="none" width="100" height="100"/>
<g>
	<path fill="#FFFFFF" d="M68.847,76.6c0-9.382,28.147-8.209,28.147-17.591c0-11.728-60.985-11.728-60.985-19.938
		c0-5.865,17.592-9.382,17.592-9.382S1.995,33.207,1.995,41.417c0,16.419,58.643,14.272,58.643,21.109
		c0,4.691-15.247,4.691-15.247,11.729c0,12.9,51.604,16.419,51.604,16.419S68.847,82.464,68.847,76.6z"/>
	<g>
		<path fill="#FFFFFF" d="M66.503,32.933c-2.129-4.583-7.039-10.556-11.729-12.902c3.111,1.555,12.627,14.207,11.734,25.732
			l2.929,0.512C69.155,41.639,68.438,37.104,66.503,32.933z"/>
		<path fill="#FFFFFF" d="M84.247,28.903c-3.567,0.246-11.818,2.771-10.74,18.083l2.031,0.354
			C73.701,32.877,81.307,30.09,84.247,28.903z"/>
		<path fill="#FFFFFF" d="M71.995,38.335c0.046-2.03,0.245-4.059,0.48-6.041c0.164-0.998,0.535-4.649,0.79-5.576
			c0.633-2.521,1.457-4.88,2.288-7.024c0.564-0.013,1.079-0.328,1.349-0.868l3.039-6.216c0.328-0.691,0.116-1.489-0.47-1.911
			c0.117-0.224,0.224-0.433,0.315-0.636c0.692-1.419,1.447-2.398,1.232-2.488c-0.216-0.088-1.852,2.936-1.888,2.922
			c-0.188-0.075-0.379-0.107-0.576-0.107c-0.563,0-1.115,0.316-1.384,0.857l-3.039,6.229c-0.372,0.75-0.068,1.666,0.692,2.053
			c-0.901,2.101-1.794,4.422-2.521,6.932c-0.27,0.938-0.481,1.913-0.693,2.897c-0.163,0.985-0.328,1.981-0.49,2.978
			c-0.246,1.889-0.47,3.801-0.563,5.724c-0.199-1.512-0.446-3.038-0.832-4.537c-0.47-2.017-1.079-4.012-1.736-5.958
			c-0.352-0.95-0.691-1.9-1.044-2.827c-0.389-0.938-0.777-1.852-1.222-2.721c-0.469-0.926-0.949-1.806-1.453-2.663
			c0.035-0.011,0.061-0.035,0.094-0.057c0.893-0.6,1.114-1.807,0.516-2.699l-4.901-7.236c-0.376-0.55-0.985-0.844-1.605-0.844
			c-0.378,0-0.766,0.105-1.095,0.328c-0.032,0.021-0.063,0.043-0.095,0.067c-0.054,0.042-3.084-4.207-3.489-3.726
			c0.22,0.28,0.795,1.021,1.616,2.123c0.434,0.563,0.925,1.244,1.477,2.006c-0.456,0.645-0.502,1.536-0.023,2.228l4.903,7.237
			c0.376,0.55,0.984,0.856,1.604,0.856c0.05,0,0.083,0,0.131-0.012c0.491,0.903,0.972,1.852,1.43,2.827
			c0.423,0.856,0.784,1.748,1.148,2.65c0.34,0.938,0.671,1.875,1.009,2.827c0.596,1.9,1.172,3.858,1.605,5.852
			c0.904,3.965,1.454,8.021,1.337,11.833c0,0.254-0.021,0.498-0.033,0.745l2.416,0.422C71.976,44.043,71.893,41.191,71.995,38.335z"
			/>
	</g>
</g>
</svg>
