<?xml version="1.0" encoding="utf-8"?>
<!-- Generator: Adobe Illustrator 13.0.2, SVG Export Plug-In . SVG Version: 6.00 Build 14948)  -->
<!DOCTYPE svg PUBLIC "-//W3C//DTD SVG 1.1//EN" "http://www.w3.org/Graphics/SVG/1.1/DTD/svg11.dtd">
<svg version="1.1" id="Layer_1" xmlns="http://www.w3.org/2000/svg" xmlns:xlink="http://www.w3.org/1999/xlink" x="0px" y="0px"
	 width="100px" height="100px" viewBox="0 0 100 100" enable-background="new 0 0 100 100" xml:space="preserve">
<path fill="#FFFFFF" d="M39.043,28.32c0-2.227-0.469-2.929-0.469-3.75c0-1.172,1.407-1.992,3.048-1.992
	c3.867,0,6.563,2.343,6.563,5.156V71.21c0,11.25,3.75,15.705,10.663,15.705c6.563,0,11.485-5.156,11.485-11.955
	c0-10.545-8.086-13.709-15.47-13.709c-2.108,0-4.104-8.791-0.584-8.791c5.507,0,18.984-3.631,18.984-20.625
	c0-8.906-5.744-18.047-20.158-18.047c-18.867,0-26.483,12.422-26.483,26.719c0,10.312,4.219,13.945,4.452,14.296
	c1.29-0.352,1.757,0.469,1.757,1.641c0,2.109-3.163,9.845-6.561,7.267c-1.876-1.756-8.557-8.787-8.557-22.499
	C17.715,19.296,32.13,5,52.988,5c17.695,0,29.297,9.96,29.297,26.603c0,12.772-6.563,20.625-15.115,25.195
	c6.796,1.992,12.305,7.851,12.305,17.931C79.475,86.445,70.568,95,58.966,95c-15.354,0-19.922-9.729-19.922-24.143L39.043,28.32
	L39.043,28.32z"/>
<rect fill="none" width="100" height="100"/>
</svg>
