<?xml version="1.0" encoding="utf-8"?>
<!-- Generator: Adobe Illustrator 13.0.2, SVG Export Plug-In . SVG Version: 6.00 Build 14948)  -->
<!DOCTYPE svg PUBLIC "-//W3C//DTD SVG 1.1//EN" "http://www.w3.org/Graphics/SVG/1.1/DTD/svg11.dtd">
<svg version="1.1" id="Layer_1" xmlns="http://www.w3.org/2000/svg" xmlns:xlink="http://www.w3.org/1999/xlink" x="0px" y="0px"
	 width="100px" height="100px" viewBox="0 0 100 100" enable-background="new 0 0 100 100" xml:space="preserve">
<rect fill="none" width="100" height="100"/>
<g>
	<path fill="#FFFFFF" d="M85.055,18.48c-5.099-2.886-15.308-8.264-22.638-9.535C53.903,7.47,46.406,8.35,43.818,10.854
		c8.231,0.195,13.765,2.597,15.575,3.505c-13.031-2.231-18.775-1.179-30.318-0.046l-3.75-4.204
		c-1.093-1.228-2.973-1.329-4.202-0.238c-1.228,1.092-1.333,2.973-0.238,4.201l5.019,5.627l1.5,6.004
		c0.682,2.335,0.925,4.808,1.404,7.212c0.434,2.418,0.871,4.839,1.12,7.298c0.3,2.454,0.631,4.9,0.898,7.358l0.64,7.407
		c0.158,1.722,0.254,3.448,0.349,5.174c0.677,0.186,1.378,0.297,2.097,0.297c0.575,0,1.138-0.081,1.691-0.204
		c-0.018-1.824-0.029-3.654-0.104-5.476l-0.302-7.532c-0.149-2.51-0.371-5.02-0.551-7.533c-0.14-2.514-0.471-5.024-0.796-7.534
		c-0.376-2.511-0.511-5.032-1.104-7.534l-0.534-2.64c1.133,0.394,2.271,0.768,3.382,1.233c1.315,0.498,2.603,1.026,3.873,1.625
		c1.282,0.551,2.539,1.172,3.766,1.839c1.258,0.627,2.469,1.306,3.644,2.062c1.195,0.726,2.403,1.43,3.496,2.28
		c1.098,0.848,2.314,1.565,3.318,2.517l3.106,2.752l2.799,3.051c0.94,1.012,1.618,2.211,2.452,3.311
		c0.874,1.083,1.49,2.306,2.095,3.537c0.419,0.888,0.936,1.736,1.32,2.639c1.267-0.031,2.502-0.382,3.604-0.974
		c-0.389-1.165-0.987-2.246-1.468-3.373c-0.623-1.395-1.263-2.783-2.156-4.018c-0.861-1.248-1.587-2.61-2.569-3.767l-2.937-3.473
		c-1.063-1.073-2.18-2.094-3.267-3.144c-1.069-1.081-2.332-1.906-3.488-2.873c-1.162-0.972-2.425-1.785-3.672-2.616
		c-1.234-0.863-2.511-1.646-3.824-2.368c-1.285-0.77-2.6-1.489-3.955-2.136c-1.326-0.692-2.686-1.319-4.062-1.909
		c-1.36-0.629-2.773-1.139-4.168-1.696c-0.133-0.046-0.264-0.092-0.396-0.142c2.544-0.554,6.297-1.164,10.659-1.247
		c2.22,2.97,8.511,5.909,16.321,7.258c7.336,1.274,18.757-0.356,24.531-1.36c0.565-0.098,1.012-0.541,1.11-1.11
		S85.555,18.765,85.055,18.48z"/>
	<path fill="#FFFFFF" d="M87.788,58.268c-2.172-6.963-6.882-11.852-11.083-11.852c-0.52,0-1.033,0.072-1.533,0.228
		c-0.475,0.149-0.943,0.557-1.39,1.124c-2.008,2.585-5.241,4.066-8.48,4.066c-1.033,0-2.073-0.149-3.068-0.462
		c-0.432-0.141-0.839-0.216-1.202-0.216c-0.213,0-0.409,0.028-0.583,0.079c-4.527,1.413-6.223,8.909-3.78,16.733
		c1.728,5.541,5.057,9.703,8.46,11.207c2.204,1.197,4.774,1.869,7.479,1.869c1.628,0,3.306-0.242,4.976-0.771
		c4.451-1.381,7.83-4.413,9.639-8.018C89.142,69.093,89.517,63.789,87.788,58.268z"/>
	<path fill="#FFFFFF" d="M41.613,60.915c-0.504,0-1.073,0.251-1.662,0.658c-1.771,1.233-3.902,1.85-6.042,1.85
		c-2.133,0-4.266-0.616-6.044-1.85c-0.581-0.407-1.157-0.658-1.662-0.658c-4.729,0-8.568,6.643-8.568,14.824
		c0,5.796,1.938,10.757,4.735,13.201c2.798,2.886,6.899,4.753,11.54,4.753c4.658,0,8.777-1.884,11.573-4.784
		c2.779-2.449,4.708-7.394,4.708-13.17C50.189,67.558,46.348,60.915,41.613,60.915z"/>
</g>
</svg>
