<?xml version="1.0" encoding="utf-8"?>
<!-- Generator: Adobe Illustrator 13.0.2, SVG Export Plug-In . SVG Version: 6.00 Build 14948)  -->
<!DOCTYPE svg PUBLIC "-//W3C//DTD SVG 1.1//EN" "http://www.w3.org/Graphics/SVG/1.1/DTD/svg11.dtd">
<svg version="1.1" id="Layer_1" xmlns="http://www.w3.org/2000/svg" xmlns:xlink="http://www.w3.org/1999/xlink" x="0px" y="0px"
	 width="100px" height="100px" viewBox="0 0 100 100" enable-background="new 0 0 100 100" xml:space="preserve">
<rect y="-0.486" fill="none" width="100" height="100"/>
<g>
	<path fill="#FFFFFF" d="M65.794,19.126c0-2.746-1.788-6.687-7.28-6.687c-15.754,0-27.807,23.992-27.807,43.45
		c0,14.798,4.89,28.886,18.622,28.886c10.147,0,16.349-7.042,16.591-7.163c3.101-5.132,8.952,3.343,6.085,6.206
		c-0.36,0.359-9.068,9.908-23.511,9.908c-17.077,0-27.341-14.803-27.341-37.837c0-23.277,15.162-52.163,38.916-52.163
		c8.592,0,15.162,5.37,15.162,15.755c0,14.681-18.389,28.05-31.637,28.05c-2.867,0-5.248-1.789-5.248-5.729
		c0-1.672,0.477-3.82,1.313-3.82s1.068,1.195,4.538,1.195C53.022,39.177,65.794,29.269,65.794,19.126z"/>
</g>
</svg>
