<?xml version="1.0" encoding="utf-8"?>
<!-- Generator: Adobe Illustrator 13.0.2, SVG Export Plug-In . SVG Version: 6.00 Build 14948)  -->
<!DOCTYPE svg PUBLIC "-//W3C//DTD SVG 1.1//EN" "http://www.w3.org/Graphics/SVG/1.1/DTD/svg11.dtd">
<svg version="1.1" id="Layer_1" xmlns="http://www.w3.org/2000/svg" xmlns:xlink="http://www.w3.org/1999/xlink" x="0px" y="0px"
	 width="100px" height="100px" viewBox="0 0 100 100" enable-background="new 0 0 100 100" xml:space="preserve">
<rect fill="none" width="100" height="100"/>
<path fill="#FFFFFF" d="M78.279,3.068c-2.05,0.268-3.833,1.249-5.26,2.586c0.892-0.446,1.784-0.713,2.853-0.892
	c4.906-0.624,9.452,2.765,10.165,7.759c0.358,2.853-0.623,5.618-2.495,7.579c3.39-1.694,5.44-5.35,4.904-9.274
	C87.732,5.833,83.185,2.354,78.279,3.068z M25.692,82.838c0.089-0.304-0.019-0.795-0.473-1.579
	c-0.446-0.714-0.089-3.121,0.088-3.834c0.268-0.893,2.14-4.013,2.497-4.458l0.089-0.09c0.356-0.18,2.764-1.783,4.28-3.122
	c0.981-0.891,1.605-1.782,1.873-2.317c0-0.089,0.446-0.624,0.891-1.339c0.089-0.178,0.446,0,0.268,0.179
	c-0.446,0.715-0.713,1.249-0.713,1.339c0,0.891-0.625,2.942-2.765,5.351c-0.356,0.445-0.535,0.445-0.624,0.713
	c-0.268,0.802,0,3.031,0.802,5.439c0.232,0.686,0.259,1.426,0.544,1.8l-4.735,1.499C27.19,82.642,26.45,82.774,25.692,82.838z
	 M47.423,77.871c-0.446,0-8.025,2.317-8.025,2.317c-1.061,0.428-2.007,0.768-2.96,0.919c0.062-0.232,0.018-0.474,0.018-0.474
	s-0.09-0.623-1.517-1.069c-1.338-0.355-1.427-4.279-1.427-4.904c0-0.09,0-0.09,0.089-0.179c0.803-0.535,6.688-4.369,7.491-7.489
	c0.534-1.962,0.803-3.211,1.07-4.013c0-0.09,0.267-0.715-0.178-0.804c-0.269-0.089,0.356-0.089,0.445-0.089
	c0.268,0,5.083,0.444,8.472-0.979c0.892-0.358,4.458-2.319,4.191-2.053c-1.695,1.784-2.497,0.179-2.497,4.37l-1.16,12.038
	c0,0.089,0,0.089,0,0.089c0.17,0.249,1.025,1.338,1.213,2.355C50.901,77.611,48.6,77.701,47.423,77.871z M55.752,78.583
	c-0.063-0.24-0.152-0.517-0.571-0.803c-1.427-0.979-1.069-2.229-1.069-2.407c0.357-4.458,1.961-8.828,2.408-9.541l1.157-2.14
	c0.091-0.18,0.447-0.089,0.357,0.178l-0.891,2.318c0,0,0,0,0,0.089l1.248,9.632l0.534,1.069c0.134,0.134,0.313,0.598,0.5,1.008
	C58.579,78.254,57.188,78.646,55.752,78.583z M14.563,91.505l6.167-1.91c13.546-4.063,28.155,0.765,38.086,5.509
	c10.464,4.381,19.83,1.765,25.196-1.085l-0.233-2.556c0.355,0,0.65-3.427,0.829-3.604c0.159-0.161-3.104-1.57-5.654-2.721
	l-3.87-1.818c-0.928-0.572-2.158-1.526-2.158-1.526s-2.14-1.961-2.496-2.496c-1.274-1.908-4.387-1.292-7.847-1.266
	c-0.019-0.16-0.063-0.313-0.179-0.428c-0.714-0.625-0.98-0.893-1.605-1.339c-0.356-0.267-0.714-6.242,0.804-12.395
	c1.068-4.191,1.692-6.421,2.674-8.204c0.179-0.267,0.09-0.534,0.179-0.712c0.09-0.18,0.445,0,0.535-0.18
	c0.088-0.179,0.088-0.802,0.088-0.893c0.09-0.177,0.357,0.269,0.448,0.091c0.089-0.179,0-0.803,0.089-0.98
	c0.088-0.089,0.267,0.09,0.267,0c0.09-0.179-0.09-0.536,0.09-0.625c0.445-0.179,0.891-1.695,0.891-1.873
	c1.159-3.032,1.784-8.025-0.803-13.197v-0.09c0-0.446,0.09-3.388,0.803-4.815c0.804-1.517,1.427-2.943,0.981-3.924
	c0-0.536-0.356,0.267-0.356,0.445c0,0,0,0.089-0.089,0.089l-0.358,0.357l-0.444,0.356c0,0,0,0-0.09,0l-0.624,0.179
	c0,0-0.09,0-0.09,0.089l-0.356,0.446l-0.089,0.089l-0.98,0.356l-0.09,0.089c-0.089,0.178-0.356,0.089-0.356-0.089l0.089-0.624
	c0-0.268-0.356-2.498-0.534-3.567c-0.18-0.981-0.714-1.427-0.892-1.517l-0.089-0.089c-0.09-0.268-0.536-1.694-1.429-0.357
	l-0.355,0.536c0,0,0,0,0,0.089c-0.089,0.357-0.892,3.478-1.249,4.28c-0.445,0.892-2.587,1.783-3.031,4.994
	c0,0.089-0.089,0.981-1.605,1.962c-1.605,1.07-2.586,2.853-2.586,2.853s-1.784,3.121,1.516,2.229
	c1.694-0.446,1.16-0.268,2.318-0.802c0.179-0.089,0.179,0.892,0.09,0.981c-0.357,0.625-0.357,0.625-1.427,1.158
	c-0.981,0.536-2.229,1.428-4.013,1.695c-1.427,0.178-3.299,0.446-7.401,2.141c-5.083,2.14-9.542,3.299-9.542,3.299
	s-4.37,1.249-8.472,7.045c-6.509,8.828-5.885,11.86-11.414,15.427c-5.529,3.566,3.924,2.139,3.924,2.139
	c4.904-2.853,9.007-9.272,10.076-15.336c0-0.179,0.356-0.179,0.356,0c0.089,1.695,0.268,4.101,0.089,5.796
	c-0.178,2.496-3.477,5.797-3.835,6.153c0,0,0,0.089-0.088,0.089l-1.427,7.847c-0.089,0.714-0.089,0.892-0.267,1.605
	c0,0.09-0.089,0.356-0.089,1.069c0,0.339,0.188,0.66,0.455,0.909c-0.072,0-0.134-0.009-0.188-0.017
	c-1.069-0.09-7.239,7.438-8.487,8.599L14.563,91.505z"/>
</svg>
