<?xml version="1.0" encoding="utf-8"?>
<!-- Generator: Adobe Illustrator 13.0.2, SVG Export Plug-In . SVG Version: 6.00 Build 14948)  -->
<!DOCTYPE svg PUBLIC "-//W3C//DTD SVG 1.1//EN" "http://www.w3.org/Graphics/SVG/1.1/DTD/svg11.dtd">
<svg version="1.1" id="Layer_1" xmlns="http://www.w3.org/2000/svg" xmlns:xlink="http://www.w3.org/1999/xlink" x="0px" y="0px"
	 width="100px" height="100px" viewBox="0 0 100 100" enable-background="new 0 0 100 100" xml:space="preserve">
<rect fill="none" width="100" height="100"/>
<g>
	<path fill="#FFFFFF" d="M84.887,25.944c-1.678-0.103-3.392,0.477-4.67,1.758c-4.903,4.902-7.757,14.264-8.276,16.091
		c-0.693,2.417,0.188,4.915,2.032,6.395c-3.639,10.87-6.611,22.406-8.479,30.241c1.732,0.693,3.457,1.405,5.537,1.405
		c4.04,0,6.736-2.693,10.776-2.693c0.196,0,0.381,0.031,0.567,0.042c3.967-12.037,8.079-28.333,14.927-28.333
		c0.372,0,0.674-0.304,0.674-0.677c0-0.37-0.302-0.672-0.674-0.672c-8.229,0-17.245,10.592-24.785,22.45
		c1.745-6.595,3.817-13.768,6.06-20.492c2.315-0.315,4.338-1.945,5.021-4.335c0.912-3.193,3.194-8.848,5.192-10.849
		c2.247-2.246,2.358-5.813,0.339-8.195l-1.042-1.054c1.569-2.925,3.671-4.229,3.513-4.575c-0.155-0.298-1.071-1.004-2.1-0.206
		c-1.201,0.934-2.39,2.263-3.56,3.899L84.887,25.944z"/>
	<path fill="#FFFFFF" d="M81.807,84.798c-4.038,0-6.735,2.697-10.776,2.697c-4.043,0-6.735-2.697-10.776-2.697
		c-4.04,0-6.735,2.697-10.778,2.697s-6.738-2.697-10.777-2.697c-4.043,0-6.736,2.697-10.778,2.697
		c-4.041,0-6.733-2.697-10.777-2.697c-4.043,0-6.733,2.697-10.777,2.697c-2.019,0-3.705-0.672-5.389-1.346v8.085
		c1.684,0.672,3.367,1.344,5.389,1.344c4.044,0,6.734-2.693,10.777-2.693c4.043,0,6.736,2.693,10.777,2.693
		c4.042,0,6.736-2.693,10.778-2.693c4.039,0,6.737,2.693,10.777,2.693c4.042,0,6.738-2.693,10.778-2.693
		c4.041,0,6.733,2.693,10.776,2.693c4.04,0,6.736-2.693,10.776-2.693c4.041,0,6.737,2.693,10.779,2.693
		c2.019,0,3.703-0.675,5.389-1.347v-8.082c-1.686,0.672-3.37,1.346-5.389,1.346C88.544,87.495,85.848,84.798,81.807,84.798z"/>
	<path fill="#FFFFFF" d="M11.614,34.546c-1.482,2.342-1.212,5.477,0.832,7.521c0.935,0.986,2.866,5.378,4.043,9.21
		c0.771,2.507,3.017,4.135,5.491,4.263c2.551,7.379,4.706,15.306,6.331,22.148C19.876,67.663,9.255,60.277,1.649,60.277
		c-0.371,0-0.674,0.303-0.674,0.675s0.304,0.674,0.674,0.674c4.918,0.821,9.175,9.8,13.221,17.814
		c0.719-0.173,1.465-0.304,2.27-0.304c4.044,0,6.738,2.698,10.779,2.698c2.204,0,4.013-0.801,5.854-1.53
		c-1.553-7.049-4.012-16.977-7.306-26.42c1.604-1.534,2.31-3.895,1.616-6.161c-0.743-2.426-3.453-10.618-7.059-14.224
		c-1.507-1.512-3.613-2.055-5.556-1.642l-0.061,0.107c-1.201-2.335-5.817-7.922-7.511-5.399c3.206,2.229,4.507,4.698,5.38,6.321
		L11.614,34.546z"/>
	<path fill="#FFFFFF" d="M65.512,7.684c-2.359,0.096-4.545,1.573-5.43,3.921c-2.889,7.685-5.179,16.488-5.273,16.859
		c-0.638,2.452,0.325,4.938,2.231,6.369c-2.692,10.919-5.054,23.887-5.847,37.729c-4.24-23.693-3.464-48.368-17.21-47.307
		c-0.373,0-0.674,0.3-0.674,0.672c0,0.372,0.302,0.673,0.674,0.673c9.717,2.162,0.838,32.867,3.864,52.607
		c0.282-0.026,0.555-0.065,0.85-0.065c4.039,0,6.735,2.693,10.775,2.693c2.334,0,4.223-0.893,6.177-1.654
		c0.211-16.252,2.862-31.625,5.96-44.208c2.317-0.364,4.312-2.055,4.935-4.471c0.021-0.082,2.22-8.54,4.889-15.625
		c0.886-2.351,0.212-4.91-1.506-6.537l-1.01-0.987c1.136-2.929,1.58-4.263,1.614-4.342c0.683-2.263-0.063-2.546-0.146-2.57
		c-0.58-0.169-0.887,0.311-1.358,1.348c-0.036,0.084-0.932,1.806-2.129,4.914L65.512,7.684z"/>
</g>
</svg>
