<?xml version="1.0" encoding="utf-8"?>
<!-- Generator: Adobe Illustrator 13.0.2, SVG Export Plug-In . SVG Version: 6.00 Build 14948)  -->
<!DOCTYPE svg PUBLIC "-//W3C//DTD SVG 1.1//EN" "http://www.w3.org/Graphics/SVG/1.1/DTD/svg11.dtd">
<svg version="1.1" id="Layer_1" xmlns="http://www.w3.org/2000/svg" xmlns:xlink="http://www.w3.org/1999/xlink" x="0px" y="0px"
	 width="100px" height="100px" viewBox="0 0 100 100" enable-background="new 0 0 100 100" xml:space="preserve">
<g>
	<rect fill="none" width="100" height="100"/>
</g>
<g>
	<path fill="#FFFFFF" d="M55.673,9.819c-5.467,11.707-12.341,22.403-18.775,31.936c5.113,7.012,10.757,13.492,16.534,19.839
		c5.381-5.652,8.936-10.427,12.256-14.984c4.555,7.087,9.149,14.013,13.957,20.09l12.202,0.35
		C79.28,48.353,65.406,30.64,55.673,9.819z M88.551,53.839l10.633,1.354c-6.752-9.524-13.391-19.238-19.005-30.66
		c-2.19,3.248-4.43,6.461-6.787,9.597l5.097,8.398l7.807,10.951L88.551,53.839z M26.529,30.387
		C18.081,48.245,9.632,58.474,1.184,68.405l10.834,3.475l6.539,13.491l4.089-11.041L36.75,87.413l8.99-4.29l12.062,5.514
		l0.409-8.175l15.532,7.153C57.777,69.223,40.093,55.984,26.529,30.387z M63.416,72.068L76.97,85.494l6.994-2.235l6.539,1.432
		c-9.056-10.619-18.165-21.196-25.344-33.314c-3.13,4.878-6.448,8.895-9.896,12.345L63.416,72.068z"/>
</g>
</svg>
