<?xml version="1.0" encoding="utf-8"?>
<!-- Generator: Adobe Illustrator 13.0.2, SVG Export Plug-In . SVG Version: 6.00 Build 14948)  -->
<!DOCTYPE svg PUBLIC "-//W3C//DTD SVG 1.1//EN" "http://www.w3.org/Graphics/SVG/1.1/DTD/svg11.dtd">
<svg version="1.1" id="Layer_1" xmlns="http://www.w3.org/2000/svg" xmlns:xlink="http://www.w3.org/1999/xlink" x="0px" y="0px"
	 width="100px" height="100px" viewBox="0 0 100 100" enable-background="new 0 0 100 100" xml:space="preserve">
<rect fill="none" width="100" height="100"/>
<g>
	<g>
		<path fill="#FFFFFF" d="M64.677,83.787l1.067,5.231h12.811l-5.871-15.267h-4.91l0.427,3.417
			C68.52,80.049,67.025,82.612,64.677,83.787z M89.123,73.859H78.982l7.473,15.265h12.81L89.123,73.859z M1.265,89.018h12.811
			l7.472-15.267H11.407L1.265,89.018z M26.139,80.583l-3.096,8.435h12.811l1.281-6.619c-1.173,1.388-2.989,2.241-4.911,2.241
			c-1.067,0-2.028-0.213-2.989-0.64C27.847,83.253,26.78,82.078,26.139,80.583z M54.322,73.858h-9.288l-1.282,15.265h12.81
			l-0.64-7.579c-0.427-0.747-0.854-1.708-0.96-2.669l-0.641-5.124V73.858z"/>
	</g>
	<g>
		<path fill="#FFFFFF" d="M50.125,24.332c1.041,0,2.492,1.227,2.492,1.227l8.933,9.251l12.192,5.62l0,0
			c1.44,0.63,2.284,2.061,2.282,3.546l0,0c0.003,0.527-0.105,1.066-0.329,1.577l0,0c-0.624,1.489-2.11,2.22-3.544,2.216l0,0
			c-0.509-0.002-1.094-0.118-1.609-0.372l-12.9-5.863l0,0c-0.471-0.234-0.851-0.488-1.209-0.846l-1.588-1.665l0,0
			c-0.633,3.611-1.095,8.197-1.298,10.867l8.942,10.521l0,0c0.487,0.605,0.742,1.244,0.856,1.944l1.925,15.179l0,0
			c0.02,0.152,0.027,0.308,0.027,0.457l0,0c0,1.898-1.392,3.593-3.338,3.827l0,0c-0.165,0.002-0.378,0.002-0.484,0.002l0,0
			c-1.96-0.002-3.549-1.464-3.796-3.308L55.988,64.56l-8.07-9.564L35.654,79.733l0,0c-0.628,1.354-2.052,2.185-3.429,2.192l0,0
			c-0.009,0-0.017,0-0.027,0l0,0c-0.587,0-1.094-0.132-1.646-0.353l0,0c-1.404-0.701-2.181-2.053-2.179-3.437l0,0
			c-0.002-0.59,0.139-1.186,0.43-1.733l12.483-25.502l0,0c0.306-0.568,0.493-2.471,0.481-4.737l0,0c0-3.158-0.273-7.143-0.57-10.137
			l-3.733,1.563l-1.556,8.389l0,0c-0.331,1.862-2.011,3.121-3.828,3.121l0,0c-0.227,0-0.456-0.019-0.684-0.058l0,0
			c-1.873-0.336-3.127-2.016-3.127-3.832l0,0c0-0.23,0.019-0.458,0.058-0.684l1.921-10.362l0,0c0.249-1.231,1.098-2.326,2.331-2.822
			l15.68-6.72l0,0c0.367-0.118,0.684-0.245,1.048-0.252l0,0C49.306,24.369,49.084,24.332,50.125,24.332z"/>
	</g>
	<g>
		<path fill="#FFFFFF" d="M49.536,22.622c-3.69-0.001-6.57-3-6.578-6.576l0,0c0.002-3.691,3.001-6.568,6.578-6.574l0,0
			c3.585,0.005,6.567,2.989,6.574,6.574l0,0C56.103,19.622,53.226,22.62,49.536,22.622L49.536,22.622z"/>
	</g>
</g>
</svg>
