<?xml version="1.0" encoding="utf-8"?>
<!-- Generator: Adobe Illustrator 13.0.2, SVG Export Plug-In . SVG Version: 6.00 Build 14948)  -->
<!DOCTYPE svg PUBLIC "-//W3C//DTD SVG 1.1//EN" "http://www.w3.org/Graphics/SVG/1.1/DTD/svg11.dtd">
<svg version="1.1" id="Layer_1" xmlns="http://www.w3.org/2000/svg" xmlns:xlink="http://www.w3.org/1999/xlink" x="0px" y="0px"
	 width="100px" height="100px" viewBox="0 0 100 100" enable-background="new 0 0 100 100" xml:space="preserve">
<rect y="-0.486" fill="none" width="100" height="100"/>
<g>
	<path fill="#FFFFFF" d="M46.811,76.219c0,6.566,1.91,10.025,6.682,10.025c9.073,0,19.696-18.383,19.696-42.254
		c0-16.114-6.805-29.362-22.68-29.362c-19.813,0-25.066,14.321-25.066,26.976c0,11.458,5.851,18.141,6.327,18.5
		c1.312-0.359,1.788,0.477,1.788,1.672c0,3.101-2.983,7.042-5.729,7.042c-0.598,0-1.19-0.122-1.788-0.598
		c-0.36-0.238-9.909-9.073-9.909-25.902c0-21.722,13.845-36.884,34.737-36.884c22.198,0,31.869,18.384,31.869,37.599
		c0,33.901-16.829,52.401-29.96,52.401c-11.221,0-15.278-7.158-15.278-19.813V29.907c0-2.27-0.476-2.989-0.476-3.82
		c0-1.195,1.429-2.031,3.1-2.031c3.941,0,6.687,2.386,6.687,5.253V76.219z"/>
</g>
</svg>
