<?xml version="1.0" encoding="utf-8"?>
<!-- Generator: Adobe Illustrator 13.0.2, SVG Export Plug-In . SVG Version: 6.00 Build 14948)  -->
<!DOCTYPE svg PUBLIC "-//W3C//DTD SVG 1.1//EN" "http://www.w3.org/Graphics/SVG/1.1/DTD/svg11.dtd">
<svg version="1.1" id="Layer_1" xmlns="http://www.w3.org/2000/svg" xmlns:xlink="http://www.w3.org/1999/xlink" x="0px" y="0px"
	 width="100px" height="100px" viewBox="0 0 100 100" enable-background="new 0 0 100 100" xml:space="preserve">
<rect y="-0.486" fill="none" width="100" height="100"/>
<g>
	<path fill="#FFFFFF" d="M45.8,77.238c0,7.101,2.066,10.842,7.226,10.842c9.812,0,21.298-19.878,21.298-45.691
		c0-17.425-7.358-31.75-24.525-31.75c-21.425,0-27.105,15.486-27.105,29.17c0,12.39,6.327,19.617,6.842,20.004
		c1.419-0.388,1.934,0.517,1.934,1.808c0,3.354-3.226,7.616-6.195,7.616c-0.646,0-1.286-0.134-1.933-0.647
		c-0.389-0.257-10.715-9.812-10.715-28.009c0-23.489,14.971-39.884,37.563-39.884c24.002,0,34.461,19.879,34.461,40.657
		c0,36.657-18.198,56.662-32.398,56.662c-12.133,0-16.52-7.74-16.52-21.424V27.161c0-2.455-0.515-3.232-0.515-4.131
		c0-1.292,1.545-2.196,3.352-2.196c4.261,0,7.23,2.58,7.23,5.68V77.238L45.8,77.238z"/>
</g>
</svg>
