<?xml version="1.0" encoding="utf-8"?>
<!-- Generator: Adobe Illustrator 13.0.2, SVG Export Plug-In . SVG Version: 6.00 Build 14948)  -->
<!DOCTYPE svg PUBLIC "-//W3C//DTD SVG 1.1//EN" "http://www.w3.org/Graphics/SVG/1.1/DTD/svg11.dtd">
<svg version="1.1" id="Layer_1" xmlns="http://www.w3.org/2000/svg" xmlns:xlink="http://www.w3.org/1999/xlink" x="0px" y="0px"
	 width="100px" height="95.979px" viewBox="0 0 100 95.979" enable-background="new 0 0 100 95.979" xml:space="preserve">
<path fill="#FFFFFF" d="M64.357,31l-14.22-16.566V9.787l8.367-2.972l-8.369-2.976H48.96v10.594C46.221,17.627,34.745,31,34.745,31
	h5.193v18.637h19.965V31H64.357z M52.079,41.489h-4.311v-4.548c0-1.022,0.966-1.849,2.155-1.849s2.156,0.829,2.156,1.849V41.489z"/>
<polygon fill="#FFFFFF" points="20.667,31.869 20.667,34.451 17.17,34.451 17.17,31.869 17.166,31.869 12.089,31.869 12.089,34.448 
	8.593,34.448 8.593,31.869 4,31.869 4,45.503 25.257,45.503 25.257,31.869 "/>
<polygon fill="#FFFFFF" points="91.406,31.869 91.406,34.451 87.91,34.451 87.91,31.869 87.91,31.869 82.83,31.869 82.83,34.448 
	79.333,34.448 79.333,31.869 74.743,31.869 74.743,45.503 96,45.503 96,31.869 "/>
<path fill="#FFFFFF" d="M77.145,47.459v40.385h-2.953V51.658h-7.585v4.974h-2.612v-4.974h-7.583v4.974h-2.693v-4.974h-7.587v4.974
	H43.44v-4.974h-7.585v4.974h-2.608v-4.974h-7.586v36.185H22.83V47.459H6.428V92.14h39.039V80.179c0-2.465,1.996-4.457,4.458-4.457
	c2.462,0,4.459,1.992,4.459,4.457v11.962h39.163V47.459H77.145z"/>
<rect x="-0.125" y="-2.135" fill="none" width="100" height="100"/>
</svg>
