<?xml version="1.0" encoding="utf-8"?>
<!-- Generator: Adobe Illustrator 13.0.2, SVG Export Plug-In . SVG Version: 6.00 Build 14948)  -->
<!DOCTYPE svg PUBLIC "-//W3C//DTD SVG 1.1//EN" "http://www.w3.org/Graphics/SVG/1.1/DTD/svg11.dtd">
<svg version="1.1" id="Layer_1" xmlns="http://www.w3.org/2000/svg" xmlns:xlink="http://www.w3.org/1999/xlink" x="0px" y="0px"
	 width="100px" height="100px" viewBox="0 0 100 100" enable-background="new 0 0 100 100" xml:space="preserve">
<rect y="-0.486" fill="none" width="100" height="100"/>
<g>
	<path fill="#FFFFFF" d="M52.826,95.796c-2.911,0-7.567-4.541-7.567-6.754c0-1.513,0.814-0.582,1.979-0.582
		c2.095,0,3.026-2.562,3.026-8.499V61.682h-6.054c-2.445,0-4.191-3.377-4.191-5.822c0-1.28,0.582-2.327,1.746-2.327h8.499v-37.84
		c-16.3,1.048-27.594,6.868-27.594,25.147c0,8.035,3.609,12.809,6.637,15.836c1.28-0.349,1.746,0.466,1.746,1.629
		c0,3.028-2.911,6.87-5.588,6.87c-0.582,0-1.165-0.116-1.747-0.582c-3.377-2.445-10.245-11.41-10.245-23.753
		c0-22.354,14.437-34.346,42.38-34.346c6.404,0,23.984,0.233,26.43,0.233c2.329,0,2.911-0.931,3.26-0.931
		c0.815,0,1.63,2.095,1.63,3.842c0,2.794-1.746,6.171-5.355,6.171c-2.096,0-15.252-0.232-22.471-0.349v38.072H73.9
		c3.609-2.679,1.63,8.149-1.049,8.149H59.347v19.793C59.347,91.721,56.668,95.796,52.826,95.796z"/>
</g>
</svg>
