<?xml version="1.0" encoding="utf-8"?>
<!-- Generator: Adobe Illustrator 13.0.2, SVG Export Plug-In . SVG Version: 6.00 Build 14948)  -->
<!DOCTYPE svg PUBLIC "-//W3C//DTD SVG 1.1//EN" "http://www.w3.org/Graphics/SVG/1.1/DTD/svg11.dtd">
<svg version="1.1" id="Layer_1" xmlns="http://www.w3.org/2000/svg" xmlns:xlink="http://www.w3.org/1999/xlink" x="0px" y="0px"
	 width="100px" height="100px" viewBox="0 0 100 100" enable-background="new 0 0 100 100" xml:space="preserve">
<rect fill="none" width="100" height="100"/>
<g>
	<path fill="#FFFFFF" d="M47.167,80.34c-1.761-0.391-3.603,0.927-2.411,3.379c0.185,0.052,0.379,0.112,0.609,0.192
		c1.691,0.596,2.791,2.044,2.384,3.461c-0.063,0.221-0.159,0.427-0.282,0.612c0.16-0.313,0.249-0.661,0.249-1.023
		c0-1.474-1.458-2.563-3.247-2.668c-0.57-0.032-0.917,0.052-1.43,0.021c-0.883-0.058-1.768-1.85-2.212-1.939
		c-0.27,0.005,0.128,0.587,0.262,0.978c-0.108,0.023-1.754,0.575-1.62,2.059c0.003,0.039,0.052,0.122,0.156,0.109
		c1.481-0.183,1.556,0.173,1.561,0.283c0.004,0.126-0.141,0.486-0.551,0.333c-0.154-0.058-0.293-0.09-0.415-0.101
		c-0.061-0.106-0.205-0.222-0.497-0.126c-0.04-0.078-0.109-0.132-0.182-0.15c-0.03,0.024-0.056,0.05-0.081,0.077
		c0.07,0.01,0.134,0.048,0.181,0.104c-0.344,0.147-0.349,0.382-0.302,0.499c0.019,0.045,0.06,0.067,0.118,0.073
		c0.005,0.011,0.008,0.022,0.012,0.033c0.114,0.28,0.349,0.452,0.546,0.411l0.099,0.08v-0.122c0.101-0.07,0.158-0.209,0.157-0.369
		c0.083-0.041,0.218-0.002,0.504,0.261c0.464,0.431,1.1,0.398,1.1,0.398c0.108-0.801,1.038-1.408,2.195-1.408
		c0.027,0,0.056,0,0.084,0.001c-1.114,0.033-2.006,0.808-2.006,1.759c0,0.722,0.518,1.345,1.256,1.615
		c-1.022-0.006-1.546,0.024-1.546,0.328c0,0.076-0.023,0.213,0.248,0.213h2.968c0.942,0.05,1.857-0.462,1.856-0.469
		c1.22-0.623,2.016-1.647,2.016-2.82c0-0.961-0.537-1.832-1.401-2.458l-0.015-0.01c-0.811-0.685-0.012-1.724,0.738-1.286
		C50.916,84.219,50.523,81.08,47.167,80.34z"/>
	<path fill="#FFFFFF" d="M77.896,66.729c6.736,1.967,13.44,4.199,20.708,1.642c-8.673-4.724-15.441-7.494-22.142-17.837
		c5.283,1.638,9.885,2.255,13.531,1.434c-6.27-6.397-14.019-10.852-17.014-21.525c-2.493,10.093-9.668,16.133-16.301,22.345
		c3.239,0.138,6.496,0.259,12.404-3.074c-4.28,4.814-6.65,10.711-13.736,13.94c0,0-3.363,2.111-6.911,2.562
		c-5.07-3.187-10.453-7.248-14.002-11.583c6.262,1.414,12.37,3.571,19.682,0c-9.437-4.465-18.186-9.357-21.525-17.633
		c4.32,0.721,8.023,2.68,13.326,1.437c-6.996-8.092-14.99-15.558-17.836-26.243c-3.729,17.17-11.676,20.988-18.454,28.498
		c8.091,0.914,11.727-2.259,16.813-4.1c-4.364,9.001-10.747,15.66-20.297,18.655c3.78,2.098,9.753,2.004,18.451-0.818
		C18.78,65.702,10.791,72.463,1.426,76.365c7.385-0.438,14.646-0.251,22.552-3.282v10.3c-1.748-1.742-4.118-2.904-7.804-3.579
		c5.087,2.834,4.835,4.747,6.273,7.837h-0.918c-1.533-1.195-2.917-2.256-3.956-4.554c-0.245,1.775,0.303,3.186,0.995,4.554h-0.661
		c-1.292-1.219-2.868-1.843-5.159-2.435c0.995,1.067,3.053,4.054,3.332,4.729h19.688l0.07-0.044c0.017-0.729,0.85-4.259,1.392-5.614
		c-1.921,1.381-3.163,2.535-3.926,4.139l-0.035-0.091c-0.399-1.842-0.055-5.351-0.055-5.351l-3.288,2.228V72.877l8.609,1.846
		c0,0,15.021,2.006,21.803-2.278c-1.573-0.581-4.143-1.781-7.123-3.419c5.978,0.763,12.873-0.655,15.251-1.888
		c-1.752,2.013-11.52,10.482-19.549,12.267c9.637,5.175,21.601,0.649,21.601,0.649v4.619l-0.007,3.653h6.772v-8.272
		c6.024,4.395,15.276,2.478,22.144,0.036C89.66,76.886,83.394,72.972,77.896,66.729z"/>
</g>
</svg>
