<?xml version="1.0" encoding="utf-8"?>
<!-- Generator: Adobe Illustrator 13.0.2, SVG Export Plug-In . SVG Version: 6.00 Build 14948)  -->
<!DOCTYPE svg PUBLIC "-//W3C//DTD SVG 1.1//EN" "http://www.w3.org/Graphics/SVG/1.1/DTD/svg11.dtd">
<svg version="1.1" id="Layer_1" xmlns="http://www.w3.org/2000/svg" xmlns:xlink="http://www.w3.org/1999/xlink" x="0px" y="0px"
	 width="100px" height="100px" viewBox="0 0 100 100" enable-background="new 0 0 100 100" xml:space="preserve">
<rect fill="none" width="100" height="100"/>
<path fill="#FFFFFF" d="M96.853,42.213c-1.306,0.521-6.747-0.548-8.573,0.495c-2.172,5.392-9.95,11.765-9.95,11.765
	s1.915,2.695,2.96,3.566c0.52,0.783,2.172,2.35,3.39,5.131c1.739,2.785,1.308,3.652,1.132,5.83
	c-3.047,1.563-3.047-4.781-3.047-4.781s-0.867-1.744-1.65-3.049c-3.53-2.15-6.317-4.018-7.742-4.887
	c-3.75-2.406-5.329-7.112-5.329-7.112c0.576,2.743,2.413,5.806,4.251,6.997c-0.114,1.158-0.969,3.328-0.969,3.328
	s-0.864,7.977,0.048,10.197c0.739,0.688,0.792,0.574,0.956,1.566c-1.563,2.174-3.478-0.346-3.478-0.346s-2.344-10.037-1.407-14.473
	c-1.175-0.93-2.547-1.053-2.547-1.053c-10.084,0.352-10.859-0.779-11.786-1.363c1.006-5.096-0.835-7.952-0.835-7.952
	c0.891,3.077,0.562,5.808,0.056,7.706c-0.003,0-0.003,0-0.004,0c0,0.004,0,0.008,0,0.01c-0.173,0.645-0.54,3.893-3.355,7.422
	c-1.306,1.477,1.357,7.82,1.618,8.865c1.655,0.695,1.847,0.715,1.479,2.262c-3.741,1.068-4.109-2.238-5.151-4.934
	c-1.082-3.609-2.609-3.736-1.653-5.744c1.062-3.896-2.34-9.084-2.427-8.996c-0.522,1.738-4.395,6.805-7.787,8.199
	c-2.335,0.848-3.403,5.791-3.62,9.021c-0.054,0.781,1.119,0.582,1.001,1.66c-0.179,1.656-4.172,0.334-3.997-0.537
	c2.355-5.496,1.713-11.939,2.669-12.373c6.332-5.191,5.158-12.222,5.504-13.092c0.348-0.87,1.282-2.376,0.758-1.941
	c-19.307,18.783-39.787,9.875-36.23-7.195c4.286,5.041,4.804,6.695,11.911,6.543c7.064-0.152,19.702-10.495,25.796-0.914
	c7.259-8.243,22.044-6.487,27.675-4.794c6.012,1.633,8.765,0.009,10.592-1.121c3.307-2,7.219-7.653,9.653-10.784
	c2.699-4.086,2.176,4.869,2.699,5.479c1.847,1.312,2.292,2.104,3.074,3.668c1.616,2.896,3.793,3.462,5.623,4.68
	C99.986,40.382,96.854,42.209,96.853,42.213z M88.382,35.98c0.534,0,0.967-0.433,0.967-0.966c0-0.533-0.433-0.966-0.967-0.966
	c-0.532,0-0.966,0.433-0.966,0.966C87.416,35.547,87.848,35.98,88.382,35.98z"/>
</svg>
