<?xml version="1.0" encoding="utf-8"?>
<!-- Generator: Adobe Illustrator 13.0.2, SVG Export Plug-In . SVG Version: 6.00 Build 14948)  -->
<!DOCTYPE svg PUBLIC "-//W3C//DTD SVG 1.1//EN" "http://www.w3.org/Graphics/SVG/1.1/DTD/svg11.dtd">
<svg version="1.1" id="Layer_1" xmlns="http://www.w3.org/2000/svg" xmlns:xlink="http://www.w3.org/1999/xlink" x="0px" y="0px"
	 width="100px" height="100px" viewBox="0 0 100 100" enable-background="new 0 0 100 100" xml:space="preserve">
<g>
	<rect fill="none" width="100" height="100"/>
</g>
<g>
	<g>
		<path fill="#FFFFFF" d="M10.766,34.286l0.285,0.278c1.895,1.227,4.558,2.438,7.838,3.493c1.981,0.641,4.14,1.212,6.417,1.708
			l2.229,0.452c2.842,0.54,5.866,0.976,9.005,1.294l4.36,0.363c2.894,0.189,5.871,0.287,8.899,0.287
			c0.919,0,1.823-0.024,2.731-0.043c-0.123-0.099-0.26-0.181-0.373-0.291c-1.693-1.693-4.155-1.693-5.847,0
			c-0.294,0.293-0.772,0.293-1.067,0c-0.295-0.295-0.294-0.77,0-1.068c2.276-2.273,5.709-2.273,7.986,0
			c0.744,0.743,1.891,1.168,3.156,1.168h0.057c1.248-0.013,2.426-0.447,3.145-1.168c0.297-0.294,0.773-0.294,1.066,0
			c0.262,0.263,0.279,0.655,0.08,0.947c7.525-0.616,14.416-1.854,19.975-3.65c0.078-0.024,0.146-0.051,0.225-0.076
			c-0.387,0.07-0.789,0.112-1.193,0.114h-0.064c-1.666,0-3.205-0.585-4.229-1.607c-1.697-1.695-4.158-1.695-5.855,0
			c-0.293,0.294-0.77,0.294-1.063,0c-0.295-0.295-0.295-0.773,0-1.069c2.275-2.275,5.709-2.275,7.984,0
			c0.752,0.756,1.918,1.169,3.211,1.167c1.252-0.012,2.426-0.446,3.146-1.167c0.295-0.294,0.771-0.294,1.066-0.001
			c0.295,0.296,0.295,0.773,0,1.069c-0.371,0.374-0.836,0.666-1.332,0.917c1.914-0.703,3.572-1.456,4.93-2.224l0.328-0.233
			c-6.424-4.217-21.381-8.353-36.951-8.516C41.519,26.335,20.263,26.983,10.766,34.286z M37.987,34.682
			c-1.071,1.07-2.66,1.605-4.245,1.605c-1.589,0-3.176-0.536-4.248-1.605c-1.697-1.697-4.157-1.697-5.852,0
			c-0.297,0.293-0.772,0.293-1.068,0c-0.294-0.296-0.294-0.774,0-1.069c2.276-2.274,5.711-2.274,7.988,0
			c1.544,1.546,4.811,1.546,6.357,0c0.294-0.294,0.772-0.294,1.067,0C38.281,33.907,38.281,34.384,37.987,34.682z M64.881,34.497
			v3.098l-19.053-2.979l6.116-3.35L64.881,34.497z M96.783,31.485c-0.168-10.544-24.191-16.23-46.808-16.23
			c-22.606,0-46.629,5.686-46.807,16.228c-0.458,2.302-0.693,4.653-0.693,7.007c0,13.617,7.688,26.219,20.62,33.909
			c-0.007,0.554-0.015,0.957-0.021,1.328c-0.01,0.477-0.019,0.907-0.019,1.521c0,4.376,2.909,8.164,8.19,10.667
			c4.774,2.267,11.253,3.462,18.729,3.462c16.576,0,26.875-5.27,26.875-13.749l0.002-1.966c0.002-0.409,0.002-0.828,0.002-1.261
			c12.936-7.691,20.621-20.295,20.621-33.913C97.475,36.138,97.24,33.791,96.783,31.485z M90.961,35.217
			c-0.043,0.043-0.07,0.093-0.123,0.128l-0.219,0.157c-0.313,0.253-0.645,0.505-1.014,0.754c-0.008-0.007-0.02-0.014-0.025-0.021
			l-0.896,0.632L88.6,36.923c-1.959,1.116-4.404,2.153-7.266,3.08c-8.461,2.726-19.627,4.198-31.537,4.203
			c-3.073,0-6.095-0.102-9.053-0.292l-4.395-0.371c-3.208-0.323-6.292-0.769-9.207-1.322l-2.256-0.456
			c-2.348-0.512-4.567-1.099-6.625-1.761c-3.454-1.116-6.292-2.396-8.409-3.779l-0.158-0.124l-1.97-1.938
			c-0.211-0.205-0.308-0.481-0.3-0.757c-0.358-0.608-0.552-1.213-0.552-1.811c0.001-2.91,4.443-6.083,11.881-8.48
			c8.314-2.683,19.401-4.156,31.224-4.156c11.822,0,22.912,1.475,31.222,4.156c7.441,2.397,11.885,5.569,11.885,8.48
			C93.084,32.784,92.338,34.015,90.961,35.217z"/>
	</g>
</g>
</svg>
