<?xml version="1.0" encoding="utf-8"?>
<!-- Generator: Adobe Illustrator 13.0.2, SVG Export Plug-In . SVG Version: 6.00 Build 14948)  -->
<!DOCTYPE svg PUBLIC "-//W3C//DTD SVG 1.1//EN" "http://www.w3.org/Graphics/SVG/1.1/DTD/svg11.dtd">
<svg version="1.1" id="Layer_1" xmlns="http://www.w3.org/2000/svg" xmlns:xlink="http://www.w3.org/1999/xlink" x="0px" y="0px"
	 width="100px" height="100px" viewBox="0 0 100 100" enable-background="new 0 0 100 100" xml:space="preserve">
<g>
	<path fill="#FFFFFF" d="M42.96,71.551c-11.602,0-18.144-11.601-18.144-29.091c0-18.617,11.876-41.447,30.495-41.447
		c6.737,0,11.879,4.399,11.879,11.602c0,10.196-11.314,18.898-19.458,18.898c-2.239,0-4.113-1.406-4.113-4.491
		c0-1.31,0.373-3.371,1.028-3.371s0.846,0.938,3.557,0.938c4.771,0,11.6-5.518,11.6-11.505c0-2.152-1.398-5.241-5.701-5.241
		c-11.704,0-21.521,18.152-21.521,34.522c0,13.47,4.585,21.892,10.573,21.892c9.539,0,14.402-12.911,14.402-20.582
		c0-0.938-0.188-2.433-0.188-3.089c0-1.775,1.41-1.87,2.994-1.87c1.688,0,4.865,1.497,4.865,3.555
		c-0.463,5.053-0.563,9.45-0.563,14.125c0,4.397,0.101,8.979,0.101,14.688c1.775-0.279,3.457-0.375,4.959-0.469
		c4.396-0.281,2.057,7.299-1.221,7.391c-1.398,0-2.619,0.098-3.932,0.188c-0.465,10.479-2.709,22.733-13.655,22.733
		c-6.361,0-10.473-4.771-10.473-11.036c0-9.546,8.508-14.596,17.208-17.218V71.74c0-4.026-0.187-7.112-0.187-9.358
		C53.534,68.184,48.666,71.551,42.96,71.551z M57.365,79.602c-6.17,1.963-9.635,5.426-9.635,10.104c0,2.805,1.5,4.021,3.374,4.021
		C55.311,93.725,56.9,87.083,57.365,79.602z"/>
</g>
<rect x="0.009" y="0.97" fill="none" width="100" height="100"/>
</svg>
