<?xml version="1.0" encoding="utf-8"?>
<!-- Generator: Adobe Illustrator 13.0.2, SVG Export Plug-In . SVG Version: 6.00 Build 14948)  -->
<!DOCTYPE svg PUBLIC "-//W3C//DTD SVG 1.1//EN" "http://www.w3.org/Graphics/SVG/1.1/DTD/svg11.dtd">
<svg version="1.1" id="Layer_1" xmlns="http://www.w3.org/2000/svg" xmlns:xlink="http://www.w3.org/1999/xlink" x="0px" y="0px"
	 width="100px" height="100px" viewBox="0 0 100 100" enable-background="new 0 0 100 100" xml:space="preserve">
<g>
	<rect fill="none" width="100" height="100"/>
</g>
<g>
	<path fill="#FFFFFF" d="M39.736,94.353V82.111c4.988-0.907,9.975-3.175,13.604-6.801c0.453-0.453,0.453-0.907,0.453-1.814
		c-0.453-1.36-0.453-2.721-0.453-4.534c0-5.44,2.266-16.322,6.8-25.844c0-0.454,0.454-0.907,0-1.36
		C56.513,25.435,46.538,5.485,35.202,5.485c-14.962,0-27.204,34.912-27.204,49.874c0,13.603,9.975,24.484,22.671,26.752v12.241
		H39.736z"/>
	<path fill="#FFFFFF" d="M79.882,94.806v-8.161c7.708-1.813,13.602-9.068,13.602-17.683c0-9.975-8.161-36.272-18.136-36.272
		c-9.976,0-18.137,26.299-18.137,36.272c0,8.614,5.895,15.416,13.603,17.683v8.161H79.882z"/>
</g>
</svg>
