<?xml version="1.0" encoding="utf-8"?>
<!-- Generator: Adobe Illustrator 13.0.2, SVG Export Plug-In . SVG Version: 6.00 Build 14948)  -->
<!DOCTYPE svg PUBLIC "-//W3C//DTD SVG 1.1//EN" "http://www.w3.org/Graphics/SVG/1.1/DTD/svg11.dtd">
<svg version="1.1" id="Layer_1" xmlns="http://www.w3.org/2000/svg" xmlns:xlink="http://www.w3.org/1999/xlink" x="0px" y="0px"
	 width="100px" height="100px" viewBox="0 0 100 100" enable-background="new 0 0 100 100" xml:space="preserve">
<rect y="-0.486" fill="none" width="100" height="100"/>
<g>
	<path fill="#FFFFFF" d="M53.548,57.082h18.047V17.635c0-8.213,2.77-12.377,6.01-12.377c3.362,0,6.132,4.513,6.132,6.133
		c0,1.732-3.117-1.046-3.117,8.675v72.527c0,1.969-1.508,2.665-3.24,2.665c-2.666,0-5.784-1.619-5.784-3.353V65.183H53.548v27.41
		c0,1.969-1.507,2.665-3.24,2.665c-2.665,0-5.783-1.619-5.783-3.353V65.183h-8.214c-2.43,0-4.163-3.353-4.163-5.783
		c0-1.271,0.575-2.317,1.733-2.317h10.644V19.717c-14.232,0-24.527,9.834-24.527,25.338c0,9.711,4.634,15.965,6.132,15.965
		c0.697,0,0.811-0.584,1.395-0.584c0.574,0,0.688,1.046,0.688,1.855c0,4.86-4.276,9.023-7.63,6.594
		c-4.05-2.892-9.721-10.757-9.721-23.482c0-24.527,20.478-34.36,38.063-34.36c2.431,0,4.625,2.081,4.625,4.86V57.082z"/>
</g>
</svg>
