<?xml version="1.0" encoding="utf-8"?>
<!-- Generator: Adobe Illustrator 13.0.2, SVG Export Plug-In . SVG Version: 6.00 Build 14948)  -->
<!DOCTYPE svg PUBLIC "-//W3C//DTD SVG 1.1//EN" "http://www.w3.org/Graphics/SVG/1.1/DTD/svg11.dtd">
<svg version="1.1" id="Layer_1" xmlns="http://www.w3.org/2000/svg" xmlns:xlink="http://www.w3.org/1999/xlink" x="0px" y="0px"
	 width="100px" height="100px" viewBox="0 0 100 100" enable-background="new 0 0 100 100" xml:space="preserve">
<g>
	<rect fill="none" width="100" height="100"/>
</g>
<g>
	<path fill="#FFFFFF" d="M61.743,49.498l0.064,0.059c-1.813-4.276-0.966-9.352-0.786-10.284c0.331-18.06-7.418-31.258-10.739-36.066
		c-0.275-0.29-0.788-0.575-1.517,0.095c-5.48,6.132-6.847,16.454-6.573,18.858c5.694,5.254,10.7,11.928,13.656,20.339l0.025,0.067
		c0.02,0.073,1.342,4.575,4.091,7.868C63.235,53.081,61.743,49.499,61.743,49.498z"/>
	<path fill="#FFFFFF" d="M88.017,66.529c1.393,0.469,2.517,1.404,3.328,2.287c0.364-1.327,0.132-2.618-0.673-3.854l-0.637-1.131
		l-0.573-1.485c-2.002-5.436-7.855-7.462-12.92-7.462c-2.32,0-4.695,0.482-6.858,1.225c-1.181,0.406-2.354,0.602-3.488,0.602h-0.002
		c-8.963,0-12.743-12.321-13.029-13.311C44.895,19.951,18.862,10.604,9.999,8.018C9.4,7.977,8.578,8.166,8.403,9.656
		c-0.351,5.869-0.007,11.423,1.042,16.651l8.85,6.004c1.074,0.979,4.284,4.208-0.852,3.636c-0.117-0.012-0.226-0.024-0.33-0.034
		l-5.063-0.665c1.102,2.824,2.441,5.543,4.004,8.116l8.889,2.553c0.661,0.301,5.395,2.521,2.254,3.141l-6.705,0.534
		c2.3,2.778,4.918,5.375,7.811,7.753l5.547-1.001c1.577-0.203,4.906-0.451,2.047,1.551l-3.613,2.462
		c1.722,1.197,3.52,2.328,5.369,3.373l4.547-1.577c1.144-0.283,2.799-0.379,2.273,1.642L43.5,66.677
		c4.264,1.9,7.199,2.676,7.234,2.685l1.01,0.264l0.039,1.046c0.508,12.052-8.411,17.404-14.414,19.632
		c-0.767,0.458-1.776,1.381,0.261,2.382c0.286,0.139,0.481,0.259,0.622,0.357c2.656,1.324,5.606,2.178,8.868,2.546l2.733-4.09
		c0.083-0.12,0.099-0.249,0.2-0.398c1.856-2.776,2.264-1.192,2.264-0.205v4.859c1.938-0.07,2.729-0.208,3.557-0.343
		c-1.573-5.02,0.669-9.091,0.768-9.279l0.348-0.635l0.715-0.105c0.79-0.115,1.576-0.308,2.352-0.563
		c-0.252-0.416-0.483-0.837-0.704-1.26c-0.077-0.307-0.133-1.015,0.826-1.453c1.003-0.461,1.653,0.218,1.872,0.504
		c0.34,0.63,0.693,1.208,1.046,1.723l0.248,0.344c0.021,0.028,0.042,0.056,0.063,0.084l2.418,5.826l-1.377,2.123l2.377,1.539
		l1.552-2.399l0.171-0.224c0.443-0.592,1.054-1.284,1.715-1.909l0.089,0.207l-1.375,2.106l2.376,1.504l1.873-2.964
		c1.218-1.558,3.432-3.839,4.708-3.839c0.011,0,0.02,0,0.027,0c0.131,0,0.402,0.179,0.733,0.664l2.34-1.438
		c-0.952-1.399-2.161-1.705-3.009-1.726c-1.054-0.035-2.113,0.392-3.087,1.013c-0.086-0.041-0.172-0.078-0.257-0.109
		c0.136-0.197,0.283-0.378,0.444-0.531c0.415-0.39,0.858-0.572,1.453-0.541l0.102-2.83c-1.337-0.036-2.539,0.408-3.499,1.317
		c-0.435,0.41-0.796,0.896-1.102,1.414l0.075-2.084c-0.649-0.021-1.271,0.079-1.847,0.288c-0.095-0.288-0.195-0.579-0.302-0.876
		c-0.383,0.43-0.785,0.855-1.21,1.275c0.042,0.133,0.08,0.267,0.12,0.402c-0.087,0.071-0.178,0.144-0.263,0.224
		c-0.246,0.232-0.465,0.491-0.667,0.76l-0.099,0.042l0.021,0.06c-0.405,0.564-0.723,1.194-0.976,1.835l-0.472-1.133
		c-0.02-0.08-0.042-0.156-0.065-0.241c-0.024-0.091-0.06-0.191-0.088-0.29c-0.025-0.086-0.061-0.17-0.086-0.257
		c-0.12-0.398-0.286-0.834-0.455-1.314l-0.312-0.752c-0.206-0.552-0.523-1.112-0.764-1.671c-0.07-0.253-0.351-1.081,0.712-1.591
		c1.263-0.607,1.443,0.531,1.443,0.531v-0.013c0,0.151,0.457,0.304,0.524,0.463c3.448-3.794,5.488-8.045,5.506-8.093l0.052-0.131
		c2.59-5.038,5.373-5.898,7.19-6.098c4.591,1.184,6.563,0.79,6.563,0.79L88.017,66.529z M85.21,60.602
		c0,0.725-0.588,1.313-1.313,1.313c-0.726,0-1.312-0.588-1.312-1.313s0.586-1.313,1.312-1.313
		C84.621,59.289,85.209,59.877,85.21,60.602z"/>
</g>
</svg>
