<?xml version="1.0" encoding="utf-8"?>
<!-- Generator: Adobe Illustrator 13.0.2, SVG Export Plug-In . SVG Version: 6.00 Build 14948)  -->
<!DOCTYPE svg PUBLIC "-//W3C//DTD SVG 1.1//EN" "http://www.w3.org/Graphics/SVG/1.1/DTD/svg11.dtd">
<svg version="1.1" id="Layer_1" xmlns="http://www.w3.org/2000/svg" xmlns:xlink="http://www.w3.org/1999/xlink" x="0px" y="0px"
	 width="100px" height="100px" viewBox="0 0 100 100" enable-background="new 0 0 100 100" xml:space="preserve">
<rect y="-0.486" fill="none" width="100" height="100"/>
<g>
	<path fill="#FFFFFF" d="M54.522,56.338h18.047V16.892c0-8.212,2.776-12.378,6.015-12.378c3.354,0,6.131,4.512,6.131,6.132
		c0,1.735-3.122-1.041-3.122,8.675v72.532c0,1.967-1.505,2.66-3.24,2.66c-2.661,0-5.783-1.619-5.783-3.355V64.438H54.522v27.416
		c0,1.967-1.503,2.66-3.238,2.66c-2.661,0-5.784-1.619-5.784-3.355V64.438h-8.213c-2.43,0-4.165-3.355-4.165-5.785
		c0-1.273,0.578-2.314,1.735-2.314H45.5V18.975c-14.229,0-24.524,9.832-24.524,25.333c0,9.717,4.627,15.963,6.132,15.963
		c0.694,0,0.81-0.578,1.387-0.578c0.579,0,0.694,1.041,0.694,1.852c0,4.857-4.28,9.023-7.634,6.594
		c-4.05-2.893-9.718-10.76-9.718-23.482c0-24.525,20.475-34.358,38.059-34.358c2.43,0,4.627,2.083,4.627,4.859V56.338z"/>
</g>
</svg>
