<?xml version="1.0" encoding="utf-8"?>
<!-- Generator: Adobe Illustrator 13.0.2, SVG Export Plug-In . SVG Version: 6.00 Build 14948)  -->
<!DOCTYPE svg PUBLIC "-//W3C//DTD SVG 1.1//EN" "http://www.w3.org/Graphics/SVG/1.1/DTD/svg11.dtd">
<svg version="1.1" id="Layer_1" xmlns="http://www.w3.org/2000/svg" xmlns:xlink="http://www.w3.org/1999/xlink" x="0px" y="0px"
	 width="100px" height="100px" viewBox="0 0 100 100" enable-background="new 0 0 100 100" xml:space="preserve">
<g>
	<rect fill="none" width="100" height="100"/>
</g>
<g>
	<path fill="#FFFFFF" d="M46.907,48.789c3.895,4.156,6.813,5.15,9.67,6.679c1.595,0.831,14.299,5.638,19.885,20.537
		c8.896,0.608,16.5-1.91,21.53-4.582c-2.825-17.487-34.861-51.18-42.855-51.18c-4.636,0-10.769,8.725-16.486,16.86
		c0.555,0.909,1.296,2.105,2.157,3.433C42.643,43.366,44.998,46.746,46.907,48.789z"/>
	<path fill="#FFFFFF" d="M54.225,57.99c-2.554-1.375-6.191-2.703-10.41-7.25c-2.97-3.202-6.473-8.67-8.334-11.705l-0.054,0.041
		c-3.829-4.924-7.691-9.185-10.759-9.185c-6.323,0-11.208,7.457-15.441,17.333C7.327,51.655,3.53,63.4,3.53,63.4l-1.435,4.033
		l-0.104,0.549l8.436-2.614c18.529-5.56,38.512,1.048,52.099,7.537c3.328,1.393,6.567,2.251,9.684,2.726
		C66.846,62.93,56.094,59.018,54.225,57.99z"/>
</g>
</svg>
