<?xml version="1.0" encoding="utf-8"?>
<!-- Generator: Adobe Illustrator 13.0.2, SVG Export Plug-In . SVG Version: 6.00 Build 14948)  -->
<!DOCTYPE svg PUBLIC "-//W3C//DTD SVG 1.1//EN" "http://www.w3.org/Graphics/SVG/1.1/DTD/svg11.dtd">
<svg version="1.1" id="Layer_1" xmlns="http://www.w3.org/2000/svg" xmlns:xlink="http://www.w3.org/1999/xlink" x="0px" y="0px"
	 width="100px" height="100px" viewBox="0 0 100 100" enable-background="new 0 0 100 100" xml:space="preserve">
<rect fill="none" width="100" height="100"/>
<g>
	<path fill="#FFFFFF" d="M41.249,79.973c-5.882-0.357-10.144-6.791-8.477-11.229c-6.733-1.354-9.145-7.788-6.441-12.639
		c-4.071-1.099-6.885-8.819-3.06-13.896c-4.116-4.154-4.875-13.983,0.941-17.427C26.881,14.5,47.069,14.131,51.92,14.131
		c4.85,0,25.037,0.371,27.707,10.653c5.814,3.445,5.059,13.274,0.939,17.427c3.828,5.075,1.014,12.795-3.06,13.895
		c2.707,4.852,0.295,11.285-6.44,12.64c1.67,4.437-2.594,10.866-8.478,11.228c-0.389,1.646-3.922,6.939-10.67,6.939
		C45.17,86.911,41.639,81.618,41.249,79.973z M57.633,22.862c0-4.353-2.748-6.772-6.135-6.772c-3.387,0-6.132,2.42-6.132,6.772
		c0,4.357,2.746,10.429,6.132,10.429C54.884,33.291,57.633,27.22,57.633,22.862z"/>
	<g>
		<path fill="#FFFFFF" d="M14.604,56.99c0.111-0.217,0.055-0.504-0.137-0.835c-0.039-1.027-0.675-2.708-1.752-4.435
			c-1.55-2.491-3.423-4.125-4.18-3.653c-0.676,0.42-0.234,2.376,0.966,4.56c-2.165-0.917-4.013-1.142-4.359-0.46
			c-0.407,0.796,1.384,2.52,3.998,3.852C11.752,57.354,14.199,57.786,14.604,56.99z"/>
	</g>
	<g>
		<path fill="#FFFFFF" d="M86.654,53.686c0.246,0.015,0.484-0.156,0.707-0.466c0.922-0.454,2.199-1.724,3.334-3.408
			c1.641-2.433,2.369-4.809,1.627-5.308c-0.658-0.445-2.264,0.755-3.766,2.743c-0.05-2.35-0.599-4.128-1.361-4.168
			c-0.894-0.046-1.734,2.293-1.883,5.223C85.162,51.229,85.766,53.643,86.654,53.686z"/>
	</g>
	<g>
		<path fill="#FFFFFF" d="M94.727,26.512c0.176-0.166,0.222-0.456,0.152-0.833c0.311-0.979,0.277-2.777-0.156-4.764
			c-0.619-2.867-1.832-5.038-2.703-4.849c-0.776,0.169-1.022,2.159-0.625,4.619c-1.729-1.592-3.396-2.427-3.951-1.902
			c-0.651,0.612,0.455,2.837,2.466,4.973C91.918,25.891,94.076,27.124,94.727,26.512z"/>
	</g>
</g>
</svg>
