<?xml version="1.0" encoding="utf-8"?>
<!-- Generator: Adobe Illustrator 13.0.2, SVG Export Plug-In . SVG Version: 6.00 Build 14948)  -->
<!DOCTYPE svg PUBLIC "-//W3C//DTD SVG 1.1//EN" "http://www.w3.org/Graphics/SVG/1.1/DTD/svg11.dtd">
<svg version="1.1" id="Layer_1" xmlns="http://www.w3.org/2000/svg" xmlns:xlink="http://www.w3.org/1999/xlink" x="0px" y="0px"
	 width="98.463px" height="100px" viewBox="0 0 98.463 100" enable-background="new 0 0 98.463 100" xml:space="preserve">
<g>
	<path fill="#FFFFFF" d="M33.09,65.148c-2.363-1.198-10.801-5.944-12.398-6.643c-0.325-0.151-1.086-0.383-2.073-0.635
		c-1.236,5.82-1.905,11.867-1.039,16.743c1.375,7.758,4.48,10.328,7.25,10.542c3.089-1.914,2.701-6.604,6.559-13.258
		c1.202-2.073,2.271-4.042,3.235-5.934c-0.502-0.27-0.946-0.514-1.311-0.702L33.09,65.148z"/>
	<path fill="#FFFFFF" d="M21.791,39.798c-0.093,0.055-0.19,0.1-0.28,0.161c-3.489,2.399-11.002,7.543-12.513,8.164
		c-1.982,0.813-6.593,4.125-6.536,5.26c0.011,0.188,0.047,0.324,0.095,0.441c0.797-0.256,2.236-0.585,4.396-0.583
		c0.521,0,1.083,0.02,1.684,0.063c2.185,0.158,4.954,0.589,7.442,1.081c2.508,0.504,4.614,1.016,5.767,1.516
		c1.927,0.857,10.055,5.445,12.445,6.662l0.083,0.043c0.435,0.222,0.941,0.501,1.511,0.806c0.011-0.023,0.024-0.05,0.036-0.074
		c2.584,1.356,6.831,3.437,12.383,3.353c6.571-0.099,11.542-2.149,19.133-7.167c2.022-1.442,4.515-5.283,3.945-6.403
		c-9.376-1.438-17.738-4.051-27.576-7.506C32.426,41.614,25.193,40.256,21.791,39.798z"/>
	<path fill="#FFFFFF" d="M72.802,50.939c0.278-0.004,0.557-0.008,0.836-0.008c4.191,0.004,8.443,0.552,12.008,2.486
		c1.986,1.069,3.711,2.625,5.038,4.681c0.001-0.068,0.005-0.137,0.005-0.204c2.695-1.074,5.449-16.712,5.311-23.863
		c-0.148-7.729-2.657-12.251-2.657-12.251s-1.396-3.2-7.828-9.313c-4.833-4.594-8.032-6.01-11.202-7.142
		C71.466,4.31,66.674,3.713,63.248,3.5c-3.105,0.113-7.244,0.169-7.244,0.169c-8.092,0.21-13.478,2.546-14.149,2.897
		c-0.667,0.352-4.958,3.149-5.665,3.671c-0.707,0.522-2.687,1.079-6.617,12.194c-3.929,11.117-5.596,12.876-5.907,13.538
		c0,0,0,0,0.002,0c-0.211,0.449-0.218,0.966-0.016,1.418c0.051,0.116,0.117,0.223,0.191,0.322c4.002,0.664,10.843,2.181,20.749,5.66
		C54.777,46.949,63.211,49.576,72.802,50.939z"/>
	<path fill="#FFFFFF" d="M84.508,55.503c-2.981-1.633-6.824-2.191-10.776-2.196c-2.642,6.924-8.375,23.729-6.438,34.65
		c1.375,7.758,4.479,10.33,7.251,10.543c3.088-1.913,2.699-6.604,6.558-13.258c5.192-8.958,8.141-16.131,9.163-22.37
		C89.184,59.183,87.146,56.962,84.508,55.503z"/>
</g>
<rect x="-0.921" y="0.326" fill="none" width="100" height="100"/>
</svg>
