<?xml version="1.0" encoding="utf-8"?>
<!-- Generator: Adobe Illustrator 13.0.2, SVG Export Plug-In . SVG Version: 6.00 Build 14948)  -->
<!DOCTYPE svg PUBLIC "-//W3C//DTD SVG 1.1//EN" "http://www.w3.org/Graphics/SVG/1.1/DTD/svg11.dtd">
<svg version="1.1" id="Layer_1" xmlns="http://www.w3.org/2000/svg" xmlns:xlink="http://www.w3.org/1999/xlink" x="0px" y="0px"
	 width="100px" height="100px" viewBox="0 0 100 100" enable-background="new 0 0 100 100" xml:space="preserve">
<g>
	<g>
		<path fill="#FFFFFF" d="M92.512,67.021c-0.021-0.027-0.042-0.058-0.061-0.087c-3.384,5.277-8,8.153-14.143,8.162
			c-6.183,0.011-10.804-2.936-14.158-8.151c-3.344,5.274-7.963,8.215-14.154,8.235c-6.234,0.023-10.879-2.952-14.209-8.159
			c-3.386,5.207-7.995,8.089-14.146,8.08c-6.173-0.012-10.778-2.981-14.126-8.165c0,0-0.503,14.004,12.634,16.176
			c0.485,0.025,0.969,0.05,1.462,0.053c5.159,0.016,9.854-1.532,14.075-4.43c0.166,0.068,0.292,0.099,0.396,0.163
			c9.154,5.826,18.333,5.877,27.56,0.165c0.287-0.177,0.855-0.115,1.187,0.051c1.094,0.537,2.096,1.266,3.207,1.753
			c3.919,1.73,7.774,2.488,11.564,2.289C92.433,81.224,92.528,68.166,92.512,67.021z"/>
	</g>
	<g>
		<path fill="#FFFFFF" d="M92.512,41.906c-0.021-0.031-0.042-0.059-0.061-0.09c-3.384,5.278-8,8.154-14.143,8.163
			c-6.183,0.009-10.804-2.935-14.158-8.152c-3.344,5.275-7.963,8.214-14.154,8.235c-6.234,0.023-10.879-2.952-14.209-8.159
			c-3.386,5.208-7.995,8.089-14.146,8.079c-6.173-0.012-10.778-2.981-14.126-8.165c0,0-0.503,14.004,12.634,16.175
			c0.485,0.025,0.969,0.051,1.462,0.053c5.159,0.017,9.854-1.533,14.075-4.43c0.166,0.068,0.292,0.098,0.396,0.164
			c9.154,5.824,18.333,5.876,27.56,0.163c0.287-0.176,0.855-0.112,1.187,0.052c1.094,0.536,2.096,1.265,3.207,1.753
			c3.919,1.729,7.774,2.487,11.564,2.288C92.433,56.106,92.528,43.05,92.512,41.906z"/>
	</g>
	<g>
		<path fill="#FFFFFF" d="M92.512,16.789c-0.021-0.032-0.042-0.059-0.061-0.09c-3.384,5.278-8,8.154-14.143,8.163
			c-6.183,0.01-10.804-2.935-14.158-8.152c-3.344,5.275-7.963,8.214-14.154,8.236c-6.234,0.023-10.879-2.953-14.209-8.16
			c-3.386,5.208-7.995,8.089-14.146,8.079c-6.173-0.011-10.778-2.981-14.126-8.164c0,0-0.503,14.005,12.634,16.174
			c0.485,0.029,0.969,0.05,1.462,0.051c5.159,0.017,9.854-1.531,14.075-4.428c0.166,0.069,0.292,0.098,0.396,0.164
			c9.154,5.823,18.333,5.876,27.56,0.164c0.287-0.176,0.855-0.114,1.187,0.051c1.094,0.538,2.096,1.266,3.207,1.753
			c3.919,1.728,7.774,2.486,11.564,2.289C92.433,30.99,92.528,17.933,92.512,16.789z"/>
	</g>
</g>
<rect fill="none" width="100" height="100"/>
</svg>
