<?xml version="1.0" encoding="utf-8"?>
<!-- Generator: Adobe Illustrator 13.0.2, SVG Export Plug-In . SVG Version: 6.00 Build 14948)  -->
<!DOCTYPE svg PUBLIC "-//W3C//DTD SVG 1.1//EN" "http://www.w3.org/Graphics/SVG/1.1/DTD/svg11.dtd">
<svg version="1.1" id="Layer_1" xmlns="http://www.w3.org/2000/svg" xmlns:xlink="http://www.w3.org/1999/xlink" x="0px" y="0px"
	 width="100px" height="65.041px" viewBox="0 0 100 65.041" enable-background="new 0 0 100 65.041" xml:space="preserve">
<g>
	<path fill="#FFFFFF" d="M67.986,37.745c2.834,8.845,2.83,18.12,3.49,27.296h12.672C85.646,47.603,89.3,25.375,100,5.302
		c-9.365,12.534-13.671,29.045-18.712,44.977c0.417-6.441,0.511-12.885-0.751-19.325c0.117,6.442-0.354,12.481-1.646,17.957
		c-0.326-8.778-1.588-17.559-3.892-26.338c2.005,12.897,0.968,25.364,0.897,37.967c-2.104-8.108-3.629-16.312-7.735-24.108
		c0.332-2.509,0.679-5.019,1-7.528c-0.476,2.278-0.931,4.555-1.382,6.833c-0.502-0.914-1.031-1.826-1.611-2.729
		c0.544,1.188,1.016,2.387,1.438,3.592c-1.861,9.482-3.347,18.963-3.254,28.444h3.336C65.991,55.942,66.811,46.843,67.986,37.745z"
		/>
	<path fill="#FFFFFF" d="M92.963,47.885c-3.156,5.396-4.594,11.188-5.242,17.156h2.287C89.805,59.339,90.396,53.628,92.963,47.885z"
		/>
	<path fill="#FFFFFF" d="M54.493,65.041c0.067-14.435-0.784-28.872,1.761-43.295c3.98,22.312,1.702,33.553-1.18,43.295h6.795
		c0.385-18.071,3.896-41.345,15.227-62.478c-8.369,8.689-11.979,21.65-16.617,33.689c-0.229-6.178-1.713-11.924-3.641-17.52
		c0.115-0.544,0.223-1.088,0.348-1.632c-0.156,0.438-0.293,0.903-0.441,1.349c-0.799-2.292-1.659-4.563-2.553-6.821
		c0.73,3.191,1.326,6.146,1.849,8.973c-3.017,9.751-4.835,21.025-5.891,33.266c-1.393-5.901-3.691-11.429-7.775-16.229
		c5.331,9.135,5.293,18.269,6.188,27.403H54.493z"/>
	<path fill="#FFFFFF" d="M29.567,23.5c1.902,12.569,2.447,26.972,2.867,41.541h5.87c1.746-9.046,2.342-18.354,4.069-27.403
		c0-0.002,0-0.003,0-0.005c1.52-7.966,3.926-15.73,8.825-22.925c-7.93,8.148-12.408,20.895-15.57,35.396
		c-0.686-10.924-2.388-21.46-5.525-31.452C30.864,12.549,31.974,6.354,33.682,0C31.62,4.979,30.094,10.004,28.9,15.054
		c-0.819-2.313-1.715-4.598-2.705-6.846c0.872,2.786,1.609,5.756,2.242,8.864c-2.886,13.202-3.606,26.581-5.384,39.874
		c-2.684-17.5-0.17-34.999-15.419-52.5c10.385,15.644,10.183,30.8,10.927,46.001C13.554,44.255,8.158,38.567,0,36.425
		c11.945,7.688,16.028,16.617,17.663,25.141c-2.06-4.955-3.257-7.83-8.083-8.039c4.019,3.369,4.674,7.38,4.665,11.516h13.257
		C28.443,51.127,28.211,37.522,29.567,23.5z"/>
	<path fill="#FFFFFF" d="M43.113,43.778c-1.206,7.188-2.802,14.447-2.055,21.263h2.012C41.746,57.953,42.73,50.865,43.113,43.778z"
		/>
</g>
</svg>
