<?xml version="1.0" encoding="utf-8"?>
<!-- Generator: Adobe Illustrator 13.0.2, SVG Export Plug-In . SVG Version: 6.00 Build 14948)  -->
<!DOCTYPE svg PUBLIC "-//W3C//DTD SVG 1.1//EN" "http://www.w3.org/Graphics/SVG/1.1/DTD/svg11.dtd">
<svg version="1.1" id="Layer_1" xmlns="http://www.w3.org/2000/svg" xmlns:xlink="http://www.w3.org/1999/xlink" x="0px" y="0px"
	 width="100px" height="100px" viewBox="0 0 100 100" enable-background="new 0 0 100 100" xml:space="preserve">
<g>
	<rect fill="none" width="100" height="100"/>
	<path fill="#FFFFFF" d="M84.855,81.826c-1.762,0-3.476,0.409-5.022,1.138c-2.025,0.901-4.285,1.447-6.669,1.447
		c-2.367-0.002-4.644-0.542-6.687-1.466c-1.514-0.712-3.224-1.119-5.003-1.119c-1.754,0-3.468,0.407-5.017,1.136
		c-2.023,0.905-4.289,1.449-6.673,1.449c-2.388,0-4.646-0.546-6.687-1.466c-1.513-0.712-3.227-1.119-4.997-1.119
		c-1.778,0-3.49,0.409-5.026,1.133c-2.016,0.908-4.284,1.452-6.672,1.452c-2.374,0-4.639-0.546-6.692-1.466
		c-1.513-0.712-3.228-1.119-4.997-1.119c-1.762,0-3.473,0.407-5.02,1.133c-2.017,0.906-4.277,1.452-6.662,1.452v7.705
		c2.048,0,4.001-0.469,5.76-1.259c1.796-0.843,3.822-1.327,5.923-1.327c2.108,0,4.137,0.484,5.932,1.327
		c1.758,0.789,3.724,1.259,5.758,1.259c2.05,0,4.016-0.469,5.767-1.259c1.787-0.843,3.815-1.327,5.93-1.327
		c2.109,0,4.136,0.484,5.932,1.327c1.751,0.789,3.702,1.259,5.751,1.259c2.048,0,4.01-0.469,5.774-1.259
		c1.797-0.843,3.822-1.327,5.916-1.327c2.116,0,4.144,0.484,5.939,1.327c1.743,0.789,3.724,1.259,5.751,1.259
		c2.048,0,4-0.469,5.774-1.259c1.788-0.843,3.815-1.327,5.916-1.327c2.115,0,4.143,0.484,5.931,1.327
		c1.752,0.789,3.726,1.259,5.752,1.259v-7.705c-2.368-0.002-4.639-0.544-6.692-1.469C88.345,82.235,86.634,81.826,84.855,81.826z"/>
	<path fill="#FFFFFF" d="M38.817,76.925c1.514,0.094,2.974,0.463,4.281,1.078c0.225,0.102,0.461,0.18,0.691,0.271l-2.778-6.682
		L38.817,76.925z"/>
	<path fill="#FFFFFF" d="M29.073,73.848l0.064,0.111c0.939,1.606,2.223,3,3.77,4.124c0.055-0.024,0.114-0.042,0.168-0.066
		c0.549-0.259,1.127-0.461,1.716-0.635l2.966-7.141L29.073,73.848z"/>
	<path fill="#FFFFFF" d="M19.711,78.003c2.053,0.92,4.319,1.466,6.692,1.466c1.062,0,2.095-0.123,3.098-0.322
		c-1.264-1.197-2.335-2.564-3.163-4.066l-0.047-0.087l-2.687,1.11l-1.352-3.256l2.687-1.106l-0.027-0.095
		c-0.431-1.483-0.658-3.031-0.665-4.6v-0.119c0.006-1.566,0.233-3.116,0.665-4.598l0.027-0.097l-2.685-1.106l1.35-3.258l2.685,1.11
		l0.049-0.085c1.492-2.705,3.73-5.012,6.582-6.58l0.087-0.049l-1.11-2.685l3.252-1.35l1.108,2.683l0.097-0.025
		c1.542-0.449,3.107-0.664,4.655-0.664c1.589,0,3.159,0.227,4.661,0.664l0.095,0.025l1.11-2.683l3.283,1.35l-1.139,2.685
		l0.088,0.049c2.705,1.49,5.039,3.73,6.608,6.58l0.046,0.085l2.687-1.108l1.352,3.256l-2.685,1.106l0.029,0.097
		c0.441,1.533,0.655,3.093,0.655,4.635l0.002,0.019c-0.002,0.018,0.004,0.023-0.002,0.024c0,1.544-0.212,3.104-0.655,4.639
		l-0.029,0.093l2.685,1.108l-1.352,3.256l-2.685-1.11l-0.048,0.087c-0.867,1.578-1.982,2.955-3.254,4.137
		c1.401-0.241,2.748-0.64,3.995-1.197c1.549-0.729,3.263-1.136,5.017-1.136c1.779,0,3.489,0.407,5.003,1.119
		c2.043,0.924,4.319,1.464,6.687,1.466c2.384,0,4.644-0.546,6.669-1.447c1.547-0.729,3.261-1.138,5.022-1.138
		c0.555,0,1.099,0.053,1.636,0.129l0.018-27.153h7.265L77.949,35.621V17.75H65.641v7.075L49.819,10.948L5.863,49.859h7.422v27.12
		c0.471-0.06,0.947-0.096,1.429-0.096C16.484,76.884,18.198,77.291,19.711,78.003z"/>
	<path fill="#FFFFFF" d="M29.137,60.017c1.164-1.989,2.823-3.688,4.905-4.905l0.107-0.063l3.614,8.688l-8.69-3.611L29.137,60.017z"
		/>
	<g>
		<path fill="#FFFFFF" d="M47.873,78.924l0.111-0.062c1.989-1.162,3.685-2.823,4.907-4.903l0.063-0.109l-8.651-3.604L47.873,78.924z
			"/>
		<path fill="#FFFFFF" d="M54.306,63.409l-0.115,0.048l-8.573,3.53l8.688,3.578l0.033-0.122c0.297-1.144,0.443-2.297,0.445-3.439
			v-0.031c-0.002-1.143-0.148-2.296-0.445-3.441L54.306,63.409z"/>
		<path fill="#FFFFFF" d="M27.689,63.531c-0.289,1.114-0.442,2.266-0.446,3.429v0.054c0.004,1.164,0.157,2.317,0.446,3.43
			l0.031,0.122l0.118-0.048l8.573-3.532l-8.691-3.576L27.689,63.531z"/>
		<path fill="#FFFFFF" d="M44.499,53.665c-1.114-0.293-2.259-0.441-3.426-0.445c-0.017-0.002-0.042-0.002-0.06-0.002
			c-1.149,0-2.308,0.146-3.457,0.447l-0.12,0.03l3.576,8.692l0.103-0.249l3.506-8.443L44.499,53.665z"/>
		<path fill="#FFFFFF" d="M52.891,60.016c-1.221-2.08-2.917-3.741-4.907-4.903l-0.109-0.065l-0.047,0.119l-3.529,8.568l8.657-3.609
			L52.891,60.016z"/>
	</g>
</g>
</svg>
