<?xml version="1.0" encoding="utf-8"?>
<!-- Generator: Adobe Illustrator 13.0.2, SVG Export Plug-In . SVG Version: 6.00 Build 14948)  -->
<!DOCTYPE svg PUBLIC "-//W3C//DTD SVG 1.1//EN" "http://www.w3.org/Graphics/SVG/1.1/DTD/svg11.dtd">
<svg version="1.1" id="Layer_1" xmlns="http://www.w3.org/2000/svg" xmlns:xlink="http://www.w3.org/1999/xlink" x="0px" y="0px"
	 width="100px" height="98.68px" viewBox="0 0 100 98.68" enable-background="new 0 0 100 98.68" xml:space="preserve">
<path fill="#FFFFFF" d="M98.411,38.599c-1.642-0.621-4.267-1.024-5.802-1.076c-1.533-0.052-3.627,0.013-4.067-1.138
	c-0.44-1.145,0.789-1.541,1.403-1.739c0.615-0.197,1.652-0.646,3.011-1.105c2.046-0.698,3.175-2.534,3.312-3.874
	c0.066-0.676-0.461-1.263-1.768-1.981c-1.393-0.767-3.516-0.912-5.471-0.515c-1.955,0.396-2.818,0.6-4.188,0.659
	c-1.365,0.061-3.097-0.242-3.314-0.998c-0.221-0.755,2.016-1.21,3.189-1.886c1.174-0.675,1.862-0.837,2.256-1.425
	c0.395-0.59,1.319-1.797,0.737-2.553c-0.581-0.753-2.39-2.203-5.042-1.663c-2.654,0.539-3.73,0.562-5.38,1.044
	c-1.649,0.479-3.527,0.333-3.888-0.396c-0.358-0.727,1.906-2.265,2.906-2.296c0.998-0.031,2.153-1.545,2.106-1.826
	c-0.163-0.979-1.595-2.296-3.654-1.874c-2.061,0.421-4.227,0.781-4.587,0.417c-0.361-0.362,0.282-0.783,0.676-1.373
	c0.396-0.589,1.76-2.32,1.258-2.812C71.57,9.668,70.627,9.55,69.57,9.634c-1.059,0.085-2.758,0.913-2.865,0.354
	c-0.107-0.561,0.869-0.759,0.426-1.541c-0.441-0.783-2.939-0.291-4.348-0.404c-1.17-0.095-2.467-1.077-2.939-1.271
	c-0.246-0.101-0.861-1.45-1.566-3.379C57.956,2.51,57.785,1.262,57.699,0.4c-0.059-0.58-0.529-0.36-0.529-0.36l-1.082,1.5
	c-0.55,0.606-4.234,4.694-5.67,6.929c-1.4,2.182-2.776,4.669-2.776,4.669s-0.528-0.27-2.213,0.174
	c-0.825,0.216-1.273,1.27-1.273,1.27s-0.613-0.364-1.183-0.205c-0.71,0.201-1.055,0.417-1.379,0.609
	c-0.267,0.156-0.303,0.521-1.074,0.606c-2.531,0.283-3.592-1.417-5.063,0.306c-0.935,1.095,1.073,2.586,0.152,3.65
	c-0.92,1.063-3.616-0.488-5.982-0.762c-3.49-0.401-5.654,0.368-6.879,1.663c-0.757,0.801-0.68,1.84-0.286,2.511
	c0.572,0.974,2.409,2.215,4.097,3.129c1.688,0.912,3.686,0.91,4.295,1.825c1.285,1.93-0.43,2.213-2.454,2.586
	c-1.485,0.274-7.216-1.325-11.046-1.063c-5.999,0.408-7.35,2.296-7.977,4.563c-0.553,1.998,0.387,3.416,2.146,4.259
	c1.384,0.662,3.508,1.142,5.983,1.522c2.718,0.417,4.474,1.228,5.241,1.684c0.768,0.458,2.164,1.459,1.509,2.425
	c-0.808,1.19-2.98,2.67-6.573,3.407c-3.552,0.729-4.775,0.525-7.063,0.323c-1.986-0.177-4.124-1.539-5.88-0.688
	c-1.685,0.814-2.962-0.684-3.801,1.217c-0.609,1.375,0.328,2.873,2.168,4.089c1.841,1.218,2.001,1.619,1.514,2.453
	c-0.894,1.524-2.861,1.352-3.988,2.129c-1.078,0.742-0.629,1.813,0.229,2.544c0.909,0.771,3.007,1.264,5.308,1.416
	c2.301,0.152,7.39-1.133,10.725,0.452c1.922,0.914,1.028,2.536-0.308,3.802c-2.006,1.901-5.162,1.64-7.558,3.724
	C7.3,70.26,3.163,72.948,2.474,75.682c-0.306,1.214,0.431,1.698,1.695,2.226c0.905,0.376,1.22,0.666,0.912,1.579
	c-0.305,0.912-1.839,2.402-1.073,3.194c1.102,1.141,1.387,1.141,2.609,0.761c1.475-0.458,2.249-1.12,3.222-1.673
	c0.892-0.507,1.664-2.29,3.528-1.979c1.093,0.184,2.398-1.193,2.453,0.303c0.033,0.912-2.359,2.633-3.279,3.849
	c-0.921,1.216-2.153,3.875-1.629,5.282c0.566,1.52,0.803,0.792,1.18,1.194c0.49,0.526-0.122,1.337,0.354,1.847
	c0.957,1.022,3.278-1.059,3.892-0.146c0.614,0.913-0.734,2.712,0.49,4.493c1.024,1.489,3.536,2.064,5.169,2.064
	c2.083,0,1.67-2.079,3.948-3.371c1.337-0.758,1.84,0.152,2.762,0.303c0.921,0.151,1.534-0.911,1.534-1.52
	c0-0.607-0.756-1.322-0.768-2.588c-0.016-1.69,0.304-2.891,1.227-3.499c1.807-1.188,3.988,1.521,5.216,3.195
	c1.228,1.673,3.681,2.13,5.063,1.673c1.38-0.457,2.471-2.049,1.993-4.105c-0.598-2.593-2.3-6.238-3.528-8.218
	c-1.226-1.977-3.068-4.563-1.992-6.084c1.072-1.521,2.607-0.304,3.374,0.304c0.769,0.608,4.871,3.547,6.596,4.871
	c2.602,1.99,5.867,1.868,7.671,0.907c0.906-0.48,2.035-2.155,1.843-4.408c-0.209-2.4-1.843-5.021-3.99-7.149
	c-2.147-2.131-6.595-4.718-7.822-6.39c-1.227-1.673-2.303-4.106-1.535-5.021c0.768-0.913,3.223,1.522,5.063,2.434
	c1.84,0.913,6.443,2.893,7.518,2.893c1.073,0,3.374,0.149,3.835-1.219c0.461-1.366,0.768-4.865-2.148-7.755
	c-2.914-2.892-7.667-5.479-9.664-7.151c-1.994-1.673-3.374-3.194-2.76-4.259c0.612-1.065,2.42,0.807,3.885,0.442
	c1.471-0.363,0.368-1.337,1.176-1.661c1.182-0.476,2.196,1.176,2.608,1.673c0.625,0.759,1.45,1.701,2.67,1.566
	c1.102-0.121,1.453-1.971,0.994-3.644c-0.461-1.673-1.363-3.096-2.744-4.313c-1.379-1.217-4.448-3.042-4.294-3.803
	c0.153-0.761,1.226-0.304,2.3-0.304c0.754,0,2.613,0.128,3.729-0.156c-1.074,2.445-0.563,3.636,0.301,4.635
	c0.894,1.036,2.016,1.041,3.123,0.383c0.87-0.516,1.911-1.506,3.027-2.725c1.227-1.337,2.313-2.004,2.846-2.257
	c0.531-0.254,1.594-0.653,1.883,0.061c0.356,0.879,0.371,2.613-0.539,4.854c-0.902,2.216-1.463,2.813-2.412,3.993
	c-0.824,1.024-3.994,4.348-3.258,5.506c0.529,0.836,1.694,0.872,3.037,0.309c1.342-0.563,1.62-0.506,1.899,0.068
	c0.509,1.049-0.308,2.063-0.294,2.969c0.012,0.863,0.765,1.01,1.479,0.807c0.758-0.216,1.797-1.188,2.723-2.394
	c0.928-1.205,2.088-4.469,4.18-5.718c1.207-0.721,1.77,0.364,1.973,1.563c0.31,1.798,0.868,7.693,2.116,9.072
	c0.554,0.612,0.884,1.818,2.769,1.876c1.886,0.059,1.771-0.376,1.824-1.112c0.049-0.676,0.432-4.414,1.273-3.896
	c0.512,0.314,0.578,2.259,0.908,3.209s1.337,2.602,2.302,2.829c1.041,0.246,1.774,0.349,2.229,0.272
	c0.912-0.149,0.621-2.186,1.348-2.188c0.726-0.002,1.219,1.396,2.645,1.377c1.192-0.017,2.488-1.146,3.028-2.079
	c2.192-3.782-2.671-7.957-2.666-8.688c0.01-1.427,2.295-1.63,3.664-1.689c1.366-0.061,2.519-1.237,2.772-2.163
	C100.188,40.273,99.716,39.091,98.411,38.599z M50.609,13.365c-0.082-0.396,1.101-2.309,2.938-4.818
	c0.621-0.85,2.055-2.298,3.463-3.652c0.027,0.063,0.051,0.126,0.079,0.189c0.683,1.567,1.175,3.46,1.175,3.46
	s0.027-0.035-0.348,1.053c-0.186,0.531-0.195,1.365-0.316,1.736c-0.149,0.464,0.004,1.338-0.23,1.793
	c-0.771,1.492-2.094,1.45-1.688,2.889c0.258,0.913,1.812,0.358,2.059,1.255c0.246,0.895-1.594,1.805-2.61,3.003
	c-0.394,0.462-0.704,0.902-0.95,1.324c-0.25-0.508-0.478-0.996-0.451-1.43c0.082-1.418,1.797-2.552,0.754-4.423
	C53.616,14.19,50.762,14.125,50.609,13.365z M61.105,25.239c-0.383,0.886-3.184,3.313-4.506,5.461
	c-0.17-0.854-0.695-1.766-1.408-2.667c-0.996-1.262-3.473-2.705-2.858-3.313c0.313-0.31,0.744-0.188,1.173-0.151
	c0.006,0.029,0.008,0.059,0.014,0.087c0.162,0.709,0.762,1.047,1.273,1.077c0.743,0.042,2.098-0.51,3.218-1.103
	c1.119-0.59,1.851-1.688,2.576-1.687C62.115,22.946,61.643,23.991,61.105,25.239z M81.363,40.035
	c-3.17-3.428-5.816-6.466-8.018-9.127l0,0c-0.391,1.565-1.144,4.466-1.656,5.632l0,0l-0.215,0.604l-0.257-0.482l-0.024-0.427
	l0.024-0.068c0.153-0.411,1.046-4.128,1.497-6.024l0,0c-2.426-2.965-4.279-5.436-5.679-7.427l0,0
	c-0.124,0.652-0.291,1.395-0.481,1.815l0,0c-0.97,2.123-1.213,2.038-2.59,3.874l0,0l-0.211-0.132c0.23-0.456,0.551-1.06,1.18-2.114
	l0,0c0.773-1.142,0.736-0.9,0.996-1.674l0,0c0.25-0.749,0.406-1.817,0.493-2.651l0,0c-1.739-2.542-2.653-4.178-3.056-4.951l0,0
	c-0.34,0.593-0.861,1.36-1.645,2.182l0,0l-0.307,0.319l0.093-0.434c0.069-0.277,1.354-2.36,1.554-2.769l0,0
	c-0.094-0.342-0.457-1.583-0.492-2.105l0,0c-0.006-0.083-0.006-0.155-0.006-0.217l0,0c-0.002-0.372,0.071-0.51,0.086-0.535l0,0
	l0.099-0.167l3.224,4.699c0.204,0.022,0.952,0.106,1.758,0.106l0,0c0.438,0,0.891-0.024,1.273-0.095l0,0
	c0.411-0.078,0.752-0.113,0.982-0.113l0,0c0.187,0.033,0.326-0.056,0.414,0.192l0,0c-0.063,0.225-0.2,0.205-0.475,0.316l0,0
	c-0.962,0.293-2.011,0.364-2.816,0.364l0,0c-0.27,0-0.512-0.008-0.713-0.018l0,0c0.461,0.732,1.021,1.593,1.729,2.616l0,0
	c0.684,0.983,1.492,2.104,2.438,3.358l0,0c0.475-0.001,1.662-0.032,2.896-0.283l0,0c0.271-0.056,0.762-0.184,1.286-0.243l0,0
	c0.151-0.02,0.293-0.023,0.407-0.023l0,0c0.19,0,0.314,0.015,0.318,0.015l0,0l0.024,0.244c-1.824,0.586-3.651,0.798-4.493,0.87l0,0
	c1.361,1.782,2.996,3.824,4.945,6.13l0,0c0.716,0.042,4.502,0.262,6.843,0.323l0,0l0.165,0.004l-0.051,0.159
	c-0.164,0.351-0.742,0.367-0.775,0.39l0,0l-5.624-0.218c1.785,2.09,3.819,4.384,6.144,6.897l0,0c0.184,0.202,1.9,2.793,2.184,3.154
	l0,0l0.432,1.106l-0.117,0.045l0.082-0.097l-0.082,0.097l0.117-0.045l-0.197,0.139C85.061,43.241,81.533,40.214,81.363,40.035
	L81.363,40.035z M25.983,76.905c-0.079-0.056-0.12-0.15-0.103-0.245l0,0c0-0.008,1.073-6.392,1.237-7.956l0,0
	c-2.434,0.821-1.3,0.321-2.471,0.741l0,0c-0.837,0.296-1.469,0.45-2.292,0.793l0,0l-0.124,0.017l-1.162-0.122
	c-0.113-0.013-0.204-0.099-0.221-0.213l0,0c-0.016-0.11,0.045-0.223,0.151-0.266l0,0c2.52-1.045,4.551-1.747,5.871-2.171l0,0
	c0.002-0.029,0.006-0.063,0.014-0.095l0,0c1.414-5.834,2.779-10.939,4.069-15.389l0,0c-3.049,1.045-1.708,0.457-2.947,0.902l0,0
	c-0.837,0.297-1.469,0.45-2.294,0.792l0,0l-0.122,0.019l-1.161-0.123c-0.112-0.013-0.205-0.1-0.221-0.213l0,0
	c-0.017-0.11,0.045-0.223,0.152-0.267l0,0c3.426-1.419,5.95-2.208,7.005-2.518l0,0c1.797-6.077,3.434-10.863,4.825-14.555l0,0
	c-0.824,0.329-1.701,0.653-2.283,0.79l0,0c-0.345,0.081-1.073,0.171-2.044,0.258l0,0c-0.004,0-0.008,0-0.013,0l0,0
	c-0.108,0.003-0.204-0.062-0.241-0.158l0,0c0,0,0,0,0-0.001l0,0c0-0.001-0.001-0.003-0.001-0.004l0,0
	c-0.008-0.021-0.013-0.043-0.015-0.065l0,0c-0.006-0.068,0.015-0.132,0.058-0.185l0,0c0.004-0.005,0.008-0.009,0.013-0.014l0,0
	c0.001-0.001,0.002-0.002,0.003-0.004l0,0l0,0l0,0c0.02-0.02,0.043-0.035,0.069-0.047l0,0c0.002-0.001,0.005-0.002,0.007-0.003l0,0
	c0.001,0,0.001-0.001,0.002-0.001l0,0c0.019-0.008,0.039-0.014,0.059-0.017l0,0h0.001l0,0c0.001,0,0.003,0,0.005,0l0,0
	c0.002,0,0.005-0.001,0.007-0.001l0,0c0.038-0.003,0.075-0.006,0.111-0.01l0,0c0.235-0.061,0.357-0.375,1.469-0.692l0,0
	c1.03-0.278,2.328-0.876,3.396-1.424l0,0c1.66-4.247,2.911-6.803,3.578-8.063l0,0c-0.197,0.007-0.405,0.012-0.624,0.012l0,0
	c-0.864,0-1.89-0.068-3.053-0.271l0,0c-0.109-0.021-0.194-0.109-0.206-0.222l0,0c-0.01-0.11,0.054-0.216,0.157-0.258l0,0
	c0.454-0.161,2.329-0.2,3.371-0.208l0,0c0.285,0.002,0.66-0.057,1.033-0.135l0,0c0.018-0.006,0.037-0.01,0.057-0.012l0,0
	c0.262,0.013,0.544-0.536,0.567-0.591l0,0c0.006-0.006,3.154-4.646,3.732-5.353l0,0c0.484-0.598,0.889-0.702,1.072-0.699l0,0
	c0.045,0,0.079,0.006,0.099,0.012l0,0l0,0c0.068,0.02,0.126,0.066,0.159,0.133l0,0c0.031,0.063,0.033,0.138,0.006,0.204l0,0
	c-0.002,0.005-0.433,1.038-0.901,1.993l0,0c-0.88,1.691-3.601,8.481-3.969,9.407l0,0c0.246,0.48,1.363,2.62,2.512,3.793l0,0
	c0.73,0.788,1.147,1.263,1.197,1.669l0,0c0,0.054-0.01,0.134-0.074,0.208l0,0c-0.066,0.074-0.165,0.1-0.225,0.097l0,0
	c-0.254-0.023-0.386-0.151-0.699-0.39l0,0c-1.777-1.452-3.095-3.581-3.634-4.533l0,0l-3.828,10.382
	c0.514,0.675,3.305,4.315,4.883,5.874l0,0c0.064,0.074,0.134,0.139,0.142,0.296l0,0c0,0.229-0.248,0.305-0.338,0.305l0,0
	c-0.365-0.02-0.895-0.313-1.627-1.103l0,0c-1.58-1.74-2.971-3.508-3.554-4.264l0,0c-0.436,1.355-1.724,5.366-2.23,6.995l0,0
	c-0.543,1.747-1.029,3.989-1.127,4.454l0,0c0.275,0.546,1.996,3.923,4.112,7.185l0,0c0.056,0.111,0.093,0.208,0.093,0.324l0,0
	c0.002,0.076-0.024,0.182-0.103,0.256l0,0c-0.079,0.074-0.173,0.093-0.244,0.093l0,0c-0.394-0.038-0.784-0.366-0.965-0.777l0,0
	c-1.7-2.565-2.976-4.904-3.531-5.96l0,0c-0.571,2.286-2.558,10.173-4.205,15.902l0,0c-0.811,2.818-1.036,3.465-1.228,4.103l0,0
	c-0.371,1.235-0.891,1.566-0.951,1.599l0,0c-0.038,0.021-0.08,0.031-0.122,0.031l0,0C26.077,76.951,26.026,76.936,25.983,76.905
	L25.983,76.905z"/>
</svg>
