<?xml version="1.0" encoding="utf-8"?>
<!-- Generator: Adobe Illustrator 13.0.2, SVG Export Plug-In . SVG Version: 6.00 Build 14948)  -->
<!DOCTYPE svg PUBLIC "-//W3C//DTD SVG 1.1//EN" "http://www.w3.org/Graphics/SVG/1.1/DTD/svg11.dtd">
<svg version="1.1" id="Layer_1" xmlns="http://www.w3.org/2000/svg" xmlns:xlink="http://www.w3.org/1999/xlink" x="0px" y="0px"
	 width="100px" height="100px" viewBox="0 0 100 100" enable-background="new 0 0 100 100" xml:space="preserve">
<g>
	<path fill="#FFFFFF" d="M80.861,33.212c0,0,3.754-7.698-1.629-14.2c-5.385-6.501-12.315-4.852-12.315-4.852
		s-4.783-6.484-10.864-7.548C48.449,5.28,40.297,6.791,40.297,6.791s-4.666-4.14-14.849-2.336c-7.628,1.35-8.332,9.347-8.332,9.347
		s-6.959-0.236-9.778,3.596C4.282,21.55,7.52,30.337,7.52,30.337S3.369,36.133,4.623,41.3c1.088,4.49,7.604,4.674,7.604,4.674
		s1.25,7.086,6.881,7.369c4.596,0.229,9.598-2.337,9.598-2.337s5.75,2.604,11.591,2.518c6.019-0.092,12.133-2.875,12.133-2.875
		s4.459,4.183,9.961,5.392c5.543,1.219,10.323-5.031,10.323-5.031s6.937,1.341,9.231-3.954
		C84.441,41.312,80.861,33.212,80.861,33.212z"/>
	<path fill="#FFFFFF" d="M66.227,82.146v4.903h2.228v6.495h4.012V87.05h16.943v6.495l4.012,0.001V87.05h2.192v-4.903H66.227z
		 M74.076,80.861h2.226v-1.844h9.214v1.844h2.226v-1.844h5.682v-8.254H68.419v8.254h5.656L74.076,80.861L74.076,80.861z"/>
	<g>
		<path fill="#FFFFFF" d="M51.218,57.342c-0.302,0.896-0.563,1.169-0.563,1.169s-0.106-0.61-0.247-1.282
			c-0.117-0.563-0.417-2.422-0.645-3.586c-0.766,0.256-1.65,0.522-2.611,0.774c0.284,1.461,0.856,4.729,0.57,6.044
			c-0.58,2.656-1.994,6.83-1.994,6.83s-1.46-3.284-1.992-5.391c-0.739-3.279-0.801-5.518-0.756-6.668
			c-0.88,0.11-1.779,0.186-2.683,0.199c-0.086,0-0.185,0.004-0.293,0.004c-1.644-0.004-3.257-0.199-4.735-0.48l1.354,6.41
			l-2.845-3.127l-2.296-4.236c-1.266-0.398-2.236-0.777-2.752-0.992c-0.094,0.045-0.207,0.096-0.328,0.15l3.344,6.365
			c0,0,4.699,5.922,5.52,6.685c2.143,2.146,5.402,6.76,4.38,15.813c-0.394,4.334-1.381,8.33-2.145,10.302
			c-0.565,1.459-3.44,2.517-3.44,2.517L40.843,96l8.29-1.465l3.311,0.391l3.027-0.391l-5.069-2.697l-0.909-2.518
			c0,0-1.284-5-0.219-16.441c1.068-7.952,6.957-14.361,8.944-16.324c-2.097-0.974-3.831-2.16-4.968-3.035
			C52.626,54.598,51.438,56.688,51.218,57.342z"/>
	</g>
</g>
<rect fill="none" width="100" height="100"/>
</svg>
