<?xml version="1.0" encoding="utf-8"?>
<!-- Generator: Adobe Illustrator 13.0.2, SVG Export Plug-In . SVG Version: 6.00 Build 14948)  -->
<!DOCTYPE svg PUBLIC "-//W3C//DTD SVG 1.1//EN" "http://www.w3.org/Graphics/SVG/1.1/DTD/svg11.dtd">
<svg version="1.1" id="Layer_1" xmlns="http://www.w3.org/2000/svg" xmlns:xlink="http://www.w3.org/1999/xlink" x="0px" y="0px"
	 width="100px" height="100px" viewBox="0 0 100 100" enable-background="new 0 0 100 100" xml:space="preserve">
<rect fill="none" width="100" height="100"/>
<g>
	<path fill="#FFFFFF" d="M19.589,27.732c-0.825,0-1.752,0.207-2.783,0.516c-0.928,0.309-1.856,0.721-2.474,1.133L2.791,38.088
		c-0.62,0.413-0.928,1.031-0.928,1.649s0.308,1.133,0.928,1.648l11.542,7.062c0.62,0.413,1.546,0.824,2.474,1.133
		c0.926,0.31,1.958,0.516,2.782,0.516l13.167-2V25.731L19.589,27.732z"/>
	<path fill="#FFFFFF" d="M43.712,6.971h0.1V3.765c-0.001-1.03-0.825-1.958-1.958-1.958h-4.329c-1.032,0-1.959,0.927-1.959,1.958
		V15.51h0.073v38.026h-0.073v42.448c0,1.029,0.824,1.957,1.959,1.957h4.329c1.03,0,1.958-0.823,1.958-1.957V44.997h-0.1
		L43.712,6.971L43.712,6.971z"/>
	<path fill="#FFFFFF" d="M95.833,19.946L84.291,12.01c-0.619-0.412-1.547-0.824-2.578-1.134c-0.928-0.309-1.958-0.515-2.782-0.515
		H46.597v22.365h32.437c0.825,0,1.752-0.207,2.783-0.516c0.928-0.309,1.856-0.722,2.577-1.134l11.543-7.936
		c0.618-0.412,0.927-1.03,0.927-1.649C96.76,20.977,96.45,20.461,95.833,19.946z"/>
</g>
</svg>
