<?xml version="1.0" encoding="utf-8"?>
<!-- Generator: Adobe Illustrator 13.0.2, SVG Export Plug-In . SVG Version: 6.00 Build 14948)  -->
<!DOCTYPE svg PUBLIC "-//W3C//DTD SVG 1.1//EN" "http://www.w3.org/Graphics/SVG/1.1/DTD/svg11.dtd">
<svg version="1.1" id="Layer_1" xmlns="http://www.w3.org/2000/svg" xmlns:xlink="http://www.w3.org/1999/xlink" x="0px" y="0px"
	 width="100px" height="100px" viewBox="0 0 100 100" enable-background="new 0 0 100 100" xml:space="preserve">
<rect y="-0.486" fill="none" width="100" height="100"/>
<g>
	<path fill="#FFFFFF" d="M38.51,26.853c0-2.355-0.493-3.09-0.493-3.956c0-1.237,1.479-2.104,3.211-2.104
		c4.087,0,6.926,2.467,6.926,5.436v40.425C56.559,65.667,73.5,56.275,73.5,35.5c0-9.392-5.688-21.139-20.152-21.139
		c-19.9,0-27.943,13.105-27.943,28.185c0,10.881,4.459,14.717,4.701,15.089c1.358-0.372,1.852,0.493,1.852,1.731
		c0,2.225-3.332,10.378-6.915,7.66c-1.983-1.853-9.029-9.271-9.029-23.735c0-23.122,15.21-38.201,37.214-38.201
		c18.049,0,29.795,12.613,29.795,30.168c0,21.511-16.689,37.204-34.868,40.667v16.316c0,2.104-1.601,2.849-3.463,2.849
		c-2.839,0-6.181-1.731-6.181-3.583V26.853z"/>
</g>
</svg>
