<?xml version="1.0" encoding="utf-8"?>
<!-- Generator: Adobe Illustrator 13.0.2, SVG Export Plug-In . SVG Version: 6.00 Build 14948)  -->
<!DOCTYPE svg PUBLIC "-//W3C//DTD SVG 1.1//EN" "http://www.w3.org/Graphics/SVG/1.1/DTD/svg11.dtd">
<svg version="1.1" id="Layer_1" xmlns="http://www.w3.org/2000/svg" xmlns:xlink="http://www.w3.org/1999/xlink" x="0px" y="0px"
	 width="100px" height="100px" viewBox="0 0 100 100" enable-background="new 0 0 100 100" xml:space="preserve">
<rect fill="none" width="100" height="100"/>
<path fill="#FFFFFF" d="M82.803,56.163c5.068,1.48,10.109,3.157,15.576,1.231c-6.521-3.554-11.617-5.636-16.656-13.417
	c3.973,1.232,7.436,1.696,10.18,1.079c-4.719-4.813-10.547-8.165-12.801-16.194C77.227,36.455,71.828,41,66.838,45.672
	c2.438,0.104,4.887,0.195,9.332-2.313c-3.219,3.625-5.006,8.059-10.334,10.489c0,0-3.898,2.45-7.121,1.913
	c4.299,3.761,14.348,2.076,16.99,0.705c-0.891,1.025-4.541,4.269-8.68,6.676c-4.748-2.478-11.504-6.771-15.371-11.496
	c4.709,1.066,9.305,2.688,14.807,0c-7.102-3.357-13.684-7.038-16.196-13.265c3.25,0.543,6.036,2.017,10.026,1.08
	c-5.262-6.087-11.277-11.704-13.418-19.743c-2.804,12.92-8.781,15.792-13.881,21.442c6.087,0.688,8.823-1.7,12.649-3.085
	c-3.283,6.771-8.086,11.782-15.271,14.034c2.844,1.579,7.337,1.508,13.882-0.614c-3.034,5.883-6.855,10.128-11.261,13.159
	c-4.77-2.339-8.148-5.216-11.154-9.42c4.384,1.577,8.748,3.366,13.478,1.315c-5.644-3.784-10.052-6.003-14.412-14.288
	c3.441,1.312,6.436,1.805,8.808,1.149c-4.08-5.125-9.125-8.693-11.075-17.244c-1.622,8.085-6.293,12.925-10.61,17.9
	c2.108,0.111,4.228,0.207,8.074-2.463c-2.785,3.859-4.329,8.582-8.941,11.169c0,0-3.372,2.609-6.16,2.038
	c3.718,4.002,12.415,2.209,14.699,0.752c-1.141,1.613-7.499,8.396-12.726,9.827c6.273,4.143,14.061,0.519,14.061,0.519v3.7
	l-0.005,2.928h4.408v-6.626c1.547,1.389,3.422,1.982,5.398,2.082c-0.003,0.002-0.007,0.003-0.012,0.005
	c0.021-0.001,0.043-0.002,0.064-0.003c0.85,0.039,1.715-0.007,2.583-0.13c4.659-0.211,9.318-0.416,14.318-2.333v8.431h4.475v-8.589
	l6.479,1.391c0,0,4.785,0.639,9.531,0.197c6.426,1.688,12.979-0.773,12.979-0.773v3.473l-0.008,2.75h5.098v-6.223
	c4.531,3.306,11.492,1.864,16.658,0.027C91.65,63.804,86.938,60.858,82.803,56.163z"/>
</svg>
