<?xml version="1.0" encoding="utf-8"?>
<!-- Generator: Adobe Illustrator 13.0.2, SVG Export Plug-In . SVG Version: 6.00 Build 14948)  -->
<!DOCTYPE svg PUBLIC "-//W3C//DTD SVG 1.1//EN" "http://www.w3.org/Graphics/SVG/1.1/DTD/svg11.dtd">
<svg version="1.1" id="Layer_1" xmlns="http://www.w3.org/2000/svg" xmlns:xlink="http://www.w3.org/1999/xlink" x="0px" y="0px"
	 width="100px" height="100px" viewBox="0 0 100 100" enable-background="new 0 0 100 100" xml:space="preserve">
<rect fill="none" width="100" height="100"/>
<g>
	<path fill="#FFFFFF" d="M90.825,49.091l8.282-2.351l-9.733-3.867c-9.962-5.378-20.22-11.497-29.582-22.558
		c-5.047,6.732-8.526,9.662-12.033,12.69c1.015,1.137,2.372,2.538,4.114,4.107c4.559,4.102,11.754,9.336,22.318,13.928l5.775-3.527
		L90.825,49.091z"/>
	<path fill="#FFFFFF" d="M43.236,32.096c-1.507-1.61-3.053-3.348-4.646-5.247C27.929,41.183,16.232,50.244,4.94,57.047l-3.833,1.893
		l15.42,11.31l18.118-6.163l12.943,3.573l15.407-7.517l21.065,0.424l-8.37-4.998c-1.531-0.941-3.078-1.83-4.652-2.718
		C52.917,44.526,44.923,34.448,43.236,32.096z"/>
</g>
</svg>
