<?xml version="1.0" encoding="utf-8"?>
<!-- Generator: Adobe Illustrator 13.0.2, SVG Export Plug-In . SVG Version: 6.00 Build 14948)  -->
<!DOCTYPE svg PUBLIC "-//W3C//DTD SVG 1.1//EN" "http://www.w3.org/Graphics/SVG/1.1/DTD/svg11.dtd">
<svg version="1.1" id="Layer_1" xmlns="http://www.w3.org/2000/svg" xmlns:xlink="http://www.w3.org/1999/xlink" x="0px" y="0px"
	 width="100px" height="100px" viewBox="0 0 100 100" enable-background="new 0 0 100 100" xml:space="preserve">
<rect y="-0.486" fill="none" width="100" height="100"/>
<g>
	<path fill="#FFFFFF" d="M38.579,23.785c0-1.972-0.415-2.598-0.415-3.326c0-1.037,1.244-1.764,2.7-1.764
		c3.436,0,5.821,2.077,5.821,4.569v33.984c7.904-1.455,21.309-8.623,21.309-26.186c0-7.899-5.095-17.775-17.255-17.775
		c-16.002,0-23.178,11.539-23.178,23.699c0,9.143,3.748,12.367,3.951,12.676c1.143-0.309,1.558,0.419,1.558,1.455
		c0,1.871-2.801,8.729-5.813,6.444c-1.667-1.558-7.591-7.793-7.591-19.954c0-19.227,12.474-32.114,30.972-32.114
		c15.173,0,25.361,10.603,25.361,25.361c0,14.132-8.835,25.149-19.751,30.24c10.29,5.923,9.046,19.954,16.112,27.54
		c0.516,0.627,1.972,0.627,1.972,1.455c0,1.977-5.407,5.404-7.066,5.404c-0.524,0-0.938-0.208-1.354-0.623
		c-10.18-11.533-5.095-26.711-19.227-30.553v14.445c0,1.764-1.345,2.391-2.911,2.391c-2.386,0-5.195-1.455-5.195-3.017V23.785z"/>
</g>
</svg>
