<?xml version="1.0" encoding="utf-8"?>
<!-- Generator: Adobe Illustrator 13.0.2, SVG Export Plug-In . SVG Version: 6.00 Build 14948)  -->
<!DOCTYPE svg PUBLIC "-//W3C//DTD SVG 1.1//EN" "http://www.w3.org/Graphics/SVG/1.1/DTD/svg11.dtd">
<svg version="1.1" id="Layer_1" xmlns="http://www.w3.org/2000/svg" xmlns:xlink="http://www.w3.org/1999/xlink" x="0px" y="0px"
	 width="100px" height="100px" viewBox="0 0 100 100" enable-background="new 0 0 100 100" xml:space="preserve">
<g>
	<rect fill="none" width="100" height="100"/>
</g>
<g>
	<polygon fill="#FFFFFF" points="66.199,22.002 62.238,26.752 65.681,27.808 69.908,25.418 	"/>
	<polygon fill="#FFFFFF" points="43.007,54.813 46.277,52.194 45.403,49.575 41.262,48.926 40.389,51.323 	"/>
	<polygon fill="#FFFFFF" points="53.815,48.28 50.673,49.669 52.062,53.511 54.844,51.767 	"/>
	<polygon fill="#FFFFFF" points="63.566,11.499 61.031,15.158 64.118,17.141 65.244,14.034 	"/>
	<polygon fill="#FFFFFF" points="26.853,66.489 31.032,67.056 32.963,60.944 27.701,58.729 25.764,63.446 	"/>
	<polygon fill="#FFFFFF" points="40.53,58.202 37.124,63.702 40.084,64.933 43.729,62.169 	"/>
	<polygon fill="#FFFFFF" points="30.667,74.563 23.179,77.161 25.939,84.323 31.874,83.655 33.424,80.091 	"/>
	<path fill="#FFFFFF" d="M94.841,95.765c2.371,0,4.403-1.834,4.403-4.217l-0.055-75.555l-0.016,0.004l0.048-9.909l-18.249,4.629
		l-4.17,12.353l-8.005,6.046l-7.924,23.394l-9.561,5.787L30.761,95.78L94.841,95.765z"/>
	<g>
		<g>
			<path fill="#FFFFFF" d="M39.94,40.886l4.225-4.103l6.911,6.887c1.207,1.195,3.143,1.194,4.341-0.007
				c1.196-1.2,1.193-3.145-0.008-4.341l-9.049-9.02c-0.07-0.067-0.138-0.13-0.209-0.189c-1.192-0.992-2.963-0.94-4.098,0.162
				l-2.497,2.427C39.556,32.7,39.903,40.601,39.94,40.886z"/>
		</g>
		<g>
			<ellipse fill="#FFFFFF" cx="6.921" cy="38.804" rx="5.677" ry="5.677"/>
		</g>
		<g>
			<path fill="#FFFFFF" d="M19.34,30.878l-4.785,9.923c-0.185,0.329-0.315,0.685-0.365,1.068c-0.299,2.335,1.323,5.479,5.372,6.355
				c5.573,1.176,9.109,1.152,14.929-0.234c4.18-1.336,4.273-4.32,3.953-6.753c-0.047-0.36-0.585-13.18-0.585-13.18l11.443-6.897
				c1.452-0.876,1.92-2.762,1.043-4.214c-0.182-0.303-0.407-0.563-0.666-0.777c-0.978-0.811-2.397-0.96-3.546-0.268l-12.99,7.83
				c-0.956,0.577-1.524,1.622-1.484,2.737l0.434,12.328c-3.879,0.559-8.164,0.109-11.388-0.148l3.075-6.375
				c0.191-0.395,0.265-0.834,0.212-1.271L22.655,19.75c-0.073-0.61-0.376-1.134-0.814-1.499c-0.469-0.388-1.09-0.592-1.744-0.514
				c-1.262,0.149-2.164,1.294-2.014,2.556L19.34,30.878z"/>
		</g>
	</g>
</g>
</svg>
