<?xml version="1.0" encoding="utf-8"?>
<!-- Generator: Adobe Illustrator 13.0.2, SVG Export Plug-In . SVG Version: 6.00 Build 14948)  -->
<!DOCTYPE svg PUBLIC "-//W3C//DTD SVG 1.1//EN" "http://www.w3.org/Graphics/SVG/1.1/DTD/svg11.dtd">
<svg version="1.1" id="Layer_1" xmlns="http://www.w3.org/2000/svg" xmlns:xlink="http://www.w3.org/1999/xlink" x="0px" y="0px"
	 width="100px" height="100px" viewBox="0 0 100 100" enable-background="new 0 0 100 100" xml:space="preserve">
<g>
	<rect fill="none" width="100" height="100"/>
</g>
<path fill="#FFFFFF" d="M79.117,37.313c3.67,6.93,6.53,11.429,9.438,16.071l-5.013-1.473l4.495,10.146l10.849,1.38
	c-6.888-9.717-13.662-19.626-19.391-31.279c-2.234,3.313-4.519,6.593-6.925,9.791l1.245,1.971L79.117,37.313z M0.886,74.279
	l11.052,3.544l6.671,13.764l4.171-11.261l14.388,13.346l9.172-4.379l12.304,5.628l0.417-8.34l15.847,7.298
	C58.619,75.116,40.58,61.61,26.741,35.496C18.122,53.714,9.503,64.149,0.886,74.279z M37.54,76.682l-9.141-18.579l-3.243,5.898
	l-1.181-2.359l-7.813,7.077l0.737-10.616c3.366-5.459,6.749-10.878,9.731-17.102c4.22,7.772,9.513,14.117,14.893,20.346
	l-4.425,0.442L37.54,76.682z M56.306,14.002c0.289-0.167,1.182-0.598,2.689-0.598c1.106,0,2.308,0.235,3.567,0.7
	c1.323,0.488,2.588,0.734,3.758,0.734c1.632,0,2.632-0.479,2.986-0.683c0.154-0.091,0.247-0.254,0.247-0.438V6.861
	c0-0.317-0.366-0.544-0.651-0.397c-0.395,0.201-1.254,0.54-2.582,0.54c-1.107,0-2.308-0.236-3.568-0.7
	c-1.319-0.488-2.586-0.735-3.757-0.735c-1.442,0-2.392,0.375-2.83,0.6c-0.247,0.128-1.432,0.806-1.432,1.09v12.814
	C49.511,30.783,43.719,40.211,37.7,49.128c5.216,7.154,10.975,13.764,16.868,20.241l5.803,6.077l8.254,2.645l-5.032-6.824
	L74.859,73.9l1.595-3.543l16.593,5.176c-12.749-18.97-26.819-36.952-36.741-58.046V14.002z M66.585,41.002l-1.326,7.813
	l-6.782-7.813l-3.98,14.743l-3.244-14.45l-4.13,4.423l-0.293-6.781c3.046-5.086,6.093-10.448,9.139-15.925
	C59.373,29.143,62.795,35.255,66.585,41.002z"/>
</svg>
