<?xml version="1.0" encoding="utf-8"?>
<!-- Generator: Adobe Illustrator 13.0.2, SVG Export Plug-In . SVG Version: 6.00 Build 14948)  -->
<!DOCTYPE svg PUBLIC "-//W3C//DTD SVG 1.1//EN" "http://www.w3.org/Graphics/SVG/1.1/DTD/svg11.dtd">
<svg version="1.1" id="Layer_1" xmlns="http://www.w3.org/2000/svg" xmlns:xlink="http://www.w3.org/1999/xlink" x="0px" y="0px"
	 width="100px" height="100px" viewBox="0 0 100 100" enable-background="new 0 0 100 100" xml:space="preserve">
<g>
	<rect fill="none" width="100" height="100"/>
</g>
<g>
	<g>
		<path fill="#FFFFFF" d="M92.631,43.803l-1.635-0.326c0,0,3.486-3.052,6.32-5.668c-3.596-0.435-8.064-0.761-8.064-0.761
			l1.199-1.309c-4.467,0.326-5.449,0.979-6.32,0.546c-0.871-0.437,0.764-4.578,0.764-4.578c-4.578,0-10.025,3.379-10.025,3.379
			c-0.436-2.18,1.307-5.34,1.307-5.34s-6.863,2.18-9.479,6.21c-2.398,3.814-5.666,4.358-6.104,4.358
			c0.109-0.87,0.654-3.813,3.488-7.191c3.377-3.922,4.141-11.658,4.141-11.658s-4.686,2.288-7.084,2.397c0,0,1.635-6.756,0-11.55
			c0,0-3.813,2.942-4.467,2.179c-0.764-0.872-0.436-1.962-1.635-6.756L54.166,9.37c0,0-1.961-4.577-3.596-8.282
			c-1.744,3.705-1.635,3.596-3.596,8.172l-1.199-1.525c-1.198,4.794-0.871,5.884-1.634,6.756c-0.763,0.872-4.468-2.179-4.468-2.179
			c-1.635,4.794,0,11.55,0,11.55c-2.397-0.218-7.083-2.506-7.083-2.506s0.764,7.737,4.032,11.767
			c2.833,3.379,3.269,6.431,3.378,7.191c-0.763-0.107-3.705-0.87-5.992-4.466c-2.616-4.142-9.48-6.32-9.48-6.32
			s1.743,3.161,1.198,5.34c0,0-5.448-3.488-10.024-3.488c0,0,1.635,4.25,0.763,4.578c-0.872,0.435-1.853-0.219-6.319-0.546
			l1.198,1.307c0,0-4.468,0.329-8.063,0.655c2.725,2.507,6.211,5.666,6.211,5.666l-1.743,0.437c3.813,2.506,4.903,2.613,5.448,3.486
			c0.545,0.872-3.051,3.378-3.051,3.378c3.704,2.942,10.023,3.486,10.023,3.486c-0.763,2.069-5.12,3.923-5.12,3.923
			s8.172,3.269,12.422,1.525c1.634-0.653,3.051-0.872,4.249-0.98l-6.32,3.597c-0.217,0.107-5.23,2.613-7.083,1.96l1.853,0.872
			c-1.742,0.653-5.448,1.853-8.935,2.616c0,0,5.013,2.506,10.788,2.506l-2.725,1.853c0,0,7.736,2.18,12.967,0.87
			c5.121-1.307,1.961,2.833,1.961,2.833s9.044-1.634,11.441-5.448c1.417-2.287,2.507-2.069,3.271-2.506l0.107-0.002v0.983
			c0,0.871,0,2.18,0.109,3.597c0,0.763,0.107,1.523,0.107,2.396c0.109,0.872,0.109,1.742,0.219,2.725
			c0.109,0.98,0.219,1.851,0.326,2.94c0.109,0.982,0.328,1.962,0.438,2.942c0.217,0.982,0.436,1.962,0.652,2.942
			c0.219,0.98,0.438,1.962,0.764,2.833c0.326,0.872,0.545,1.853,0.871,2.615c0.326,0.873,0.545,1.634,0.871,2.289
			c0.328,0.653,0.545,1.307,0.873,1.96c0.217,0.546,0.545,1.09,0.762,1.417c0.438,0.763,0.654,1.309,0.654,1.309
			c0.328,0.653,1.199,0.87,1.852,0.544c0.654-0.327,0.873-1.09,0.438-1.853c0,0-0.219-0.437-0.654-1.09
			c-0.219-0.327-0.436-0.764-0.764-1.307c-0.217-0.546-0.543-1.09-0.871-1.743s-0.545-1.417-0.871-2.18
			c-0.328-0.763-0.545-1.636-0.873-2.506c-0.326-0.873-0.545-1.743-0.762-2.726c-0.219-0.979-0.436-1.853-0.654-2.833
			c-0.219-0.979-0.436-1.96-0.545-2.832c-0.107-0.98-0.326-1.853-0.436-2.833c-0.109-0.873-0.217-1.743-0.326-2.615
			c-0.109-0.873-0.109-1.634-0.219-2.396c-0.109-1.526-0.217-2.726-0.217-3.597v-0.934c0.809,0.441,2.361,0.298,3.703,2.567
			c2.398,3.815,11.441,5.448,11.441,5.448s-3.16-4.142,1.961-2.832c5.123,1.307,12.967-0.764,12.967-0.764l-2.723-1.853
			c5.773,0,9.369,0.22,9.369,0.22c-3.596-2.726-6.318-4.359-7.625-5.122l2.068-0.982c-1.961,0.655-7.082-1.96-7.082-1.96
			l-6.211-3.705c1.199,0.109,2.725,0.326,4.359,1.09c4.248,1.743,12.422-1.417,12.422-1.417s-4.359-1.853-5.123-3.922
			c0,0,6.32-0.546,10.025-3.379c0,0-3.486-2.396-2.941-3.377C87.727,46.309,88.816,46.309,92.631,43.803z M85.668,41.28
			c-0.162,0.079-0.398,0.175-0.711,0.294c-0.623,0.24-1.553,0.564-2.791,0.973c-7.463,2.457-18.594,7.581-28.359,17.863
			c-0.449,0.539-0.895,1.148-1.277,1.83c0.391-0.043,0.799-0.063,1.215-0.063c3.156,0.002,6.871,1.071,7.893,1.441
			c7.242,1.926,12.656,3.001,15.824,3.545c0.74,0.128,1.188,0.227,1.418,0.319c0.063,0.057,0.178,0.009,0.236,0.29
			c-0.121,0.374-0.26,0.236-0.357,0.293c-0.119,0.016-0.271,0.022-0.473,0.022c-0.277,0-0.648-0.013-1.107-0.037
			c-3.426-0.198-9.217-0.827-16.66-2.774c-1.949-0.647-4.555-1.108-6.557-1.108c-0.971,0-1.801,0.111-2.314,0.342l-0.033,0.013
			l-0.039,0.004c-1.09,0.099-0.814,1.224-1.432,1.768h-0.002c-0.078,0.046-0.172,0.07-0.256,0.068
			c-0.549-0.059-0.938-0.653-1.088-0.878c-0.164-0.05-0.232-0.147-0.242-0.147c-0.328-0.313-1.101-0.479-2.102-0.477
			c-2.085,0-5.107,0.637-7.39,1.081c-5.235,0.947-10.058,1.348-13.767,1.505c-0.837,0.034-1.52,0.049-2.052,0.049
			c-0.685-0.002-1.095-0.021-1.332-0.087c-0.062-0.034-0.216-0.034-0.256-0.291c0.086-0.336,0.227-0.264,0.361-0.347
			c0.149-0.054,0.354-0.104,0.628-0.161c0.541-0.115,1.347-0.249,2.421-0.398c3.521-0.491,8.178-1.272,13.563-2.483
			c0.904-0.249,4.021-0.975,6.944-0.975c0.841,0,1.667,0.059,2.424,0.212c-0.418-1.001-0.991-1.898-1.636-2.544
			C36.383,49.778,25.221,44.678,17.999,42.32c-1.977-0.644-3.051-1.029-3.363-1.212c-0.039-0.054-0.117-0.004-0.168-0.255
			c0.003-0.161,0.142-0.238,0.182-0.244c0.053-0.017,0.083-0.017,0.116-0.017c0.356,0.007,1.508,0.287,3.643,0.862
			c7.5,2.038,19.048,6.79,29.282,17.758c0.361,0.363,0.674,0.767,0.967,1.213c-0.092-2.554-0.133-5.388-0.133-8.38
			c0-11.265,0.563-24.715,0.996-33.337c0.086-1.722,0.166-2.62,0.246-3.003c0.08-0.119-0.076-0.227,0.309-0.361
			c0.289,0.069,0.23,0.194,0.271,0.24c0.021,0.066,0.033,0.139,0.047,0.227c0.023,0.178,0.047,0.42,0.063,0.713
			c0.037,0.585,0.059,1.369,0.061,2.184c0.072,21.257,0.076,36.926,0.078,43.026c0.494-1.096,1.117-2.089,1.869-2.842
			C62.527,48.307,73.979,43.62,81.693,41.56c2.311-0.614,3.596-0.91,4.016-0.918c0.039,0,0.078,0,0.135,0.015
			c0.039,0.006,0.189,0.08,0.191,0.252C85.928,41.265,85.83,41.149,85.668,41.28z"/>
	</g>
</g>
</svg>
