<?xml version="1.0" encoding="utf-8"?>
<!-- Generator: Adobe Illustrator 13.0.2, SVG Export Plug-In . SVG Version: 6.00 Build 14948)  -->
<!DOCTYPE svg PUBLIC "-//W3C//DTD SVG 1.1//EN" "http://www.w3.org/Graphics/SVG/1.1/DTD/svg11.dtd">
<svg version="1.1" id="Layer_1" xmlns="http://www.w3.org/2000/svg" xmlns:xlink="http://www.w3.org/1999/xlink" x="0px" y="0px"
	 width="100px" height="100px" viewBox="0 0 100 100" enable-background="new 0 0 100 100" xml:space="preserve">
<g>
	<rect fill="none" width="100" height="100"/>
</g>
<g>
	<path fill="#FFFFFF" d="M58.191,61.903c0,0-54.405-8.205-27.203-15.545c0,0-50.086,8.204-20.727,16.409
		c29.363,8.202,57.861,15.975,24.613,23.315C34.875,86.083,125.984,74.856,58.191,61.903z"/>
	<g>
		<g>
			<path fill="#FFFFFF" d="M62.321,44.52L61.8,45.736c-0.044,0.211-0.14,0.381-0.287,0.507c-0.146,0.125-0.286,0.188-0.411,0.188
				l-0.191,0.063l-2.462,0.527l2.326,8.122l2.37-6.43L62.321,44.52z M97.053,57.154c-6.909-4.317-18.998-17.272-25.475-32.384
				c-6.478-15.113-7.772-12.091-15.113-1.727c-7.339,10.362-5.613,15.112-12.09,7.771c-6.478-7.339-8.205,14.682-8.205,14.682
				s-25.476,5.612,21.158,12.521c0.775,0.114,1.521,0.228,2.264,0.34l0.469-1.272l-2.813-9.806l-0.936,0.2h-0.188
				c-0.339,0-0.625-0.106-0.856-0.316c-0.231-0.211-0.349-0.464-0.349-0.759c0-0.592,0.296-0.972,0.886-1.139l0.816-0.171
				l-0.991-3.455l-0.096-0.417c-0.017-0.305,0.18-0.467,0.586-0.49c0.315-0.019,0.525,0.103,0.632,0.364l1.073,3.748l2.07-0.433
				l1.223-3.813c0.126-0.591,0.391-1.056,0.791-1.394c0.4-0.336,0.771-0.527,1.107-0.568l0.569-0.063
				c0.551,0,1.034,0.158,1.457,0.475c0.421,0.317,0.694,0.644,0.822,0.981l0.127,0.506l1.398,6.149c0,0,0.343,0.905,0.303,1.653
				c-0.041,0.75-0.66,1.706-0.66,1.706l-3.997,8.847c1.432,0.225,2.785,0.441,4.084,0.655l-1.251-4.708l2.291-5.19l2.28,9.187v0.316
				c0,0.337-0.112,0.631-0.281,0.901c19.47,3.322,22.574,5.243,22.162,6.213C95.702,64.546,102.357,60.468,97.053,57.154z
				 M63.732,37.413c-0.563,0.539-1.224,0.807-1.982,0.807s-1.407-0.267-1.945-0.807c-0.54-0.539-0.809-1.187-0.809-1.947
				c0-0.759,0.269-1.407,0.809-1.943c0.538-0.539,1.187-0.81,1.945-0.81s1.419,0.271,1.982,0.81
				c0.563,0.537,0.845,1.185,0.845,1.943C64.577,36.225,64.296,36.874,63.732,37.413z M72.185,48.069l-2.083,0.039
				c-0.813,0.072-1.315-0.178-1.507-0.746l-1.578-6.647c-0.002-0.005-0.215-1.215-0.215-1.218l-0.042-0.472
				c0.25-0.466,0.465-0.5,1.083-0.338c0,0,2.042,0.554,2.451,0.841c1.027,0.726,0.779,1.376,0.186,1.497
				c0.252,0.648,1.966,1.402,2.557,3.902C73.581,47.235,74.203,47.895,72.185,48.069z"/>
		</g>
	</g>
</g>
</svg>
