<?xml version="1.0" encoding="utf-8"?>
<!-- Generator: Adobe Illustrator 13.0.2, SVG Export Plug-In . SVG Version: 6.00 Build 14948)  -->
<!DOCTYPE svg PUBLIC "-//W3C//DTD SVG 1.1//EN" "http://www.w3.org/Graphics/SVG/1.1/DTD/svg11.dtd">
<svg version="1.1" id="Layer_1" xmlns="http://www.w3.org/2000/svg" xmlns:xlink="http://www.w3.org/1999/xlink" x="0px" y="0px"
	 width="100px" height="100px" viewBox="0 0 100 100" enable-background="new 0 0 100 100" xml:space="preserve">
<g>
	<rect fill="none" width="100" height="100"/>
</g>
<g>
	<g>
		<path fill="#FFFFFF" d="M91.431,47.934c-5.504,0-10.245,1.58-10.538,1.109c-0.293-0.464,1.875-1.52,3.158-2.926
			c-11.121-9.015-14.4-21.661-34.418-21.661c-20.26,0-25.879,19.555-36.885,29.743l1.991,1.987c0,0-3.745,1.293-6.557,1.641
			c-2.811,0.35-7.26,0.772-7.26,1.407c0,0.553,5.855,0.937,8.782,0.937c2.928,0,7.845-0.354,7.845-0.354s0.352,0.464-2.579,1.402
			c-2.929,0.939-3.625,1.76-5.734,4.455c-2.103,2.691-4.403,4.958-4.403,5.968c0,1.137,0.465,1.892,2.103,1.892
			c1.64,0,2.811,0.262,4.395,0.262c3.04,0,3.04-1.887,3.858-3.293c0.824-1.406,1.423-2.253,2.358-3.072
			c0.941-0.821,2.11-1.052,3.629-1.637c1.52-0.591,3.866-1.762,3.866-1.762s3.983,1.526,10.887,1.526
			c6.911,0,19.673-0.356,25.407-0.356c5.737,0,6.854-2.397,8.259-2.397c0.701,0,4.158,2.052,4.158,2.871
			c0,1.167-5.391,5.149-5.391,6.32c0,1.173,1.874,2.052,5.274,2.052c4.859,0,5.437-2.721,6.789-4.395
			c1.465-1.811,2.686-3.511,2.686-5.621c0-2.632-5.265-5.033-5.265-5.033s1.056-1.641,3.159-1.641c2.105,0,6.325,0.47,10.892,0.47
			s7.024,0.584,7.024-3.749C98.925,49.749,96.938,47.934,91.431,47.934z M66.556,32.793c0.389,0.002,0.802,0.107,1.203,0.418
			c0.05,0.04,0.103,0.076,0.154,0.113c0.199,0.152,0.4,0.303,0.598,0.458c0.117,0.093,0.236,0.181,0.345,0.27
			c0.329,0.267,0.651,0.536,0.967,0.806c0.023,0.023,0.049,0.043,0.07,0.062c0.337,0.294,0.667,0.597,0.99,0.901
			c0.089,0.085,0.177,0.172,0.27,0.26c0.223,0.218,0.445,0.433,0.66,0.651c0.109,0.111,0.214,0.222,0.324,0.336
			c0.189,0.199,0.376,0.396,0.562,0.595c0.107,0.115,0.213,0.233,0.318,0.351c0.178,0.197,0.353,0.393,0.524,0.588
			c0.099,0.116,0.203,0.231,0.297,0.345c0.173,0.206,0.35,0.409,0.513,0.611c0.09,0.109,0.191,0.212,0.269,0.309
			c0.169,0.212,0.356,0.415,0.508,0.611c0,0,0.148,0.115,0.166,0.125c-0.026-0.003,0.676,0.977,0.665,1.542
			c-0.021,0.26-0.078,0.399-0.54,0.435l-7.764,0.284c-0.035,0-0.07,0.002-0.101,0.002c-0.698,0.002-1.274-0.269-1.675-0.538
			c-0.4-0.271-0.626-0.538-0.628-0.536c0,0-3.062-3.947-3.771-4.835v-0.002c-0.126-0.157-0.169-0.306-0.169-0.456
			c-0.026-0.587,0.821-1.232,0.819-1.238l2.939-2.003C65.322,33.095,65.906,32.793,66.556,32.793z M41.934,29.041
			c0.659-0.17,1.333-0.324,2.026-0.462c0.065-0.012,0.135-0.026,0.203-0.039c0.411-0.077,0.831-0.148,1.254-0.214
			c0.119-0.02,0.236-0.037,0.354-0.055c0.385-0.058,0.779-0.107,1.173-0.152c0.146-0.018,0.286-0.035,0.434-0.052
			c0.394-0.041,0.799-0.076,1.204-0.107c0.146-0.012,0.285-0.027,0.426-0.039c0.551-0.037,1.105-0.067,1.67-0.089
			c0.317-0.014,0.634-0.018,0.947-0.018c0.27,0,0.538,0.006,0.808,0.013c0.184,0.004,0.365,0.02,0.556,0.028
			c0.384,0.018,0.766,0.039,1.14,0.072c0.21,0.02,0.419,0.043,0.632,0.07c0.344,0.039,0.679,0.081,1.015,0.132
			c0.212,0.033,0.424,0.068,0.635,0.107c0.327,0.059,0.646,0.121,0.962,0.191c0.206,0.045,0.411,0.089,0.61,0.14
			c0.325,0.078,0.643,0.167,0.961,0.256c0.184,0.053,0.366,0.101,0.54,0.155c0.366,0.113,0.722,0.234,1.076,0.363
			c0.126,0.043,0.252,0.083,0.365,0.127c0.415,0.154,0.815,0.322,1.219,0.494l0.021-0.044l-0.01,0.052l0.02,0.004
			c0.04,0.02,0.096,0.037,0.135,0.057c0.099,0.043,0.196,0.091,0.299,0.14c0.068,0.033,0.147,0.072,0.228,0.106
			c0.281,0.168,0.528,0.417,0.52,0.647c0.002,0.178-0.121,0.426-0.57,0.73c-0.032,0.024-0.057,0.042-0.077,0.06l-2.837,1.919
			c-1.146,0.779-3.041,1.073-3.041,1.077l-11.991-0.217l-3.757-3.84c0.004,0.008-0.22-0.322-0.213-0.668
			C40.873,29.649,41.03,29.273,41.934,29.041z M23.624,51.694c-1.322,0.552-4.005,1.152-4.539,1.146l-0.039-0.012
			c-0.185-0.062-0.448-0.132-0.65-0.227c-0.103-0.046-0.18-0.098-0.216-0.133c-0.005-0.006-0.01-0.01-0.013-0.013
			c0.281-0.867,2.154-3.022,4.352-5.923c3.016-4.004,6.209-7.752,7.346-9.21l0.518-0.621c1.632-1.958,3.208-3.811,5.483-5.057
			c0.139-0.06,0.659-0.248,1.215-0.245c0.472,0.002,0.949,0.124,1.353,0.531l3.399,3.479c0.154,0.206,0.337,0.561,0.339,1.026
			c-0.002,0.261-0.056,0.558-0.212,0.909l-2.152,4.772c-0.055,0.117-0.675,1.362-2.378,2.065l-0.014,0.006l-9.963,5.174
			C27.416,49.384,24.507,51.281,23.624,51.694z M40.789,51.053c-0.48,0.08-6.095,1.055-12.587,2.033l-0.24,0.043
			c0.018-0.005-0.006-0.007-0.022-0.011c-0.411-0.049-0.741-0.412-0.736-0.546c-0.042-0.313,0.749-0.775,0.749-0.78l10.052-4.813
			l0.583-0.24c0.142-0.039,0.309-0.064,0.48-0.064c0.486,0.004,1.04,0.195,1.5,1l1.254,2.231c0.131,0.232,0.179,0.413,0.179,0.545
			C41.997,50.951,41.187,51.053,40.789,51.053z M62.826,45.428l-0.017,0.063l-1.706,4.303c-0.437,0.993-0.966,1.285-1.459,1.393
			c-0.228,0.016-0.476,0.034-0.728,0.052c-0.989,0.023-7.192,0.197-10.284,0.197c-0.313,0-0.881-0.009-0.908-0.009
			c-1.576-0.035-2.326-0.582-2.694-1.016l-2.291-4.077l-0.422-0.755c-0.136-0.322-0.261-0.744-0.261-1.201
			c0-0.316,0.06-0.645,0.21-0.978l2.303-5.105c0.075-0.12,0.745-1.167,2.305-1.165c0,0,0.037,0,0.063,0.002l9.985,0.179
			c0.004-0.002,1.599,0.012,2.575,1.235c0.438,0.544,1.108,1.393,1.748,2.185c0,0,0.267,0.415,0.367,0.542l1.125,1.508
			c-0.005-0.004,0.374,0.573,0.372,1.414C63.108,44.566,63.037,44.984,62.826,45.428z M77.818,47.827
			c-0.041,0.016-0.07,0.033-0.084,0.038l-0.107,0.045c-3.812,1.26-8.083,2.235-12.76,2.839c-0.035,0.002-0.075,0.004-0.112,0.004
			c-0.557-0.018-0.613-0.287-0.633-0.623c-0.002-0.274,0.093-0.534,0.091-0.536l1.257-2.776c0.55-1.252,1.65-1.234,1.966-1.248
			l9.365-0.343c0.102-0.006,0.211-0.008,0.322-0.008c1.123-0.149,1.346,0.441,1.346,0.441c0.009,0.012,0.086,0.147,0.112,0.195
			c0.021,0.035,0.037,0.07,0.059,0.107c0.096,0.231,0.14,0.447,0.14,0.635C78.789,47.382,77.99,47.761,77.818,47.827z
			 M93.442,53.401c-0.749,0-1.353-0.604-1.353-1.352c0-0.75,0.604-1.354,1.353-1.354c0.748,0,1.353,0.604,1.353,1.354
			C94.795,52.797,94.19,53.401,93.442,53.401z"/>
	</g>
</g>
</svg>
