<?xml version="1.0" encoding="utf-8"?>
<!-- Generator: Adobe Illustrator 13.0.2, SVG Export Plug-In . SVG Version: 6.00 Build 14948)  -->
<!DOCTYPE svg PUBLIC "-//W3C//DTD SVG 1.1//EN" "http://www.w3.org/Graphics/SVG/1.1/DTD/svg11.dtd">
<svg version="1.1" id="Layer_1" xmlns="http://www.w3.org/2000/svg" xmlns:xlink="http://www.w3.org/1999/xlink" x="0px" y="0px"
	 width="100px" height="100px" viewBox="0 0 100 100" enable-background="new 0 0 100 100" xml:space="preserve">
<rect fill="none" width="100" height="100"/>
<g>
	<path fill="#FFFFFF" d="M83.473,60.423c-7.459-8.053-15.662-41.395-23.781-41.395c-4.146,0-11.365,12.726-17.086,23.442
		c3.215,3.492,9.054,9.854,10.036,11.065c2.526,3.104-0.945,5.519-0.945,5.519s-14.541,7.881-16.293,9.012
		c-1.754,1.131-0.596,2.771-0.596,2.771l10.282,9.52c7.025,0.918,10.652-0.83,22.659-2.603c11.103-1.64,22.452-2.403,31.192-0.718
		C98.072,75.817,95.688,67.571,83.473,60.423z"/>
	<path fill="#FFFFFF" d="M31.78,66.221c0,0,11.896-6.104,16.238-8.604c3.509-2.023,1.016-4.713,1.016-4.713l-6.839-8.592
		c0,0-1.013-1.224-1.338-1.634c-5.043-6.382-10.04-11.802-13.081-11.802c-6.421,0-12.571,12.415-16.87,25.765
		c-1.928,5.984-9.967,21.033-9.967,21.033s14.879-4.644,30.872-0.554c-0.634-1.027-1.242-1.998-1.774-2.815
		C26.357,68.655,31.78,66.221,31.78,66.221z"/>
</g>
</svg>
