<?xml version="1.0" encoding="utf-8"?>
<!-- Generator: Adobe Illustrator 13.0.2, SVG Export Plug-In . SVG Version: 6.00 Build 14948)  -->
<!DOCTYPE svg PUBLIC "-//W3C//DTD SVG 1.1//EN" "http://www.w3.org/Graphics/SVG/1.1/DTD/svg11.dtd">
<svg version="1.1" id="Layer_1" xmlns="http://www.w3.org/2000/svg" xmlns:xlink="http://www.w3.org/1999/xlink" x="0px" y="0px"
	 width="100px" height="100px" viewBox="0 0 100 100" enable-background="new 0 0 100 100" xml:space="preserve">
<rect fill="none" width="100" height="100"/>
<g>
	<g>
		<path fill="#FFFFFF" d="M64.151,54.33l-14.973-17.4c0-0.103-0.101,0-0.203,0L34.611,61.311c0,0-0.101,0.101-0.101,0L5.473,55.242
			c-0.102,0-0.102,0-0.102,0.101v21.649c0,0,0,0.101,0.102,0.101l29.036,12.344c0.101,0,0.203,0,0.304,0l4.654-2.021
			c0.101,0,0.101-0.104,0.101-0.205V65.561c0-0.101,0-0.101,0.101-0.203l11.636-4.856c0.101,0,0.203,0,0.203,0.204V82.05
			c0,0.102,0.101,0.204,0.201,0.204l12.443-5.262l0.103-0.102L64.151,54.33C64.254,54.431,64.151,54.431,64.151,54.33z"/>
		<path fill="#FFFFFF" d="M71.739,51.901L49.178,25.598c-0.101-0.102-0.101-0.102-0.203-0.102h-3.338
			c-0.101,0-0.203-0.101-0.203-0.203v-4.755c0-0.101,0.101-0.203,0.203-0.203h0.607c0.101,0,0.202-0.102,0.202-0.203v-1.315
			c0.102-0.102,0-0.202-0.101-0.202h-7.284c-0.101,0-0.203,0.101-0.203,0.202v1.315c0,0.101,0.102,0.203,0.203,0.203h0.607
			c0.101,0,0.202,0.102,0.202,0.203v4.755c0,0.102-0.1,0.203-0.202,0.203H17.614c-0.101,0-0.203,0.102-0.303,0.102L1.021,48.867
			c0,0.102,0,0.204,0,0.303v0.404c0,0.102,0.101,0.303,0.203,0.303l30.959,6.576c0.101,0,0.303,0,0.303-0.103l15.681-26.606
			c0.101-0.204,0.406-0.204,0.505,0l19.324,22.56c0.102,0.103,0.102,0.103,0.202,0.103h3.237
			C71.842,52.408,71.943,52.104,71.739,51.901z"/>
	</g>
	<path fill="#FFFFFF" d="M73.546,31.334v-7.536c0-0.035,0.034-0.069,0.034-0.069h1.564c0.036,0,0.07-0.072,0.036-0.108l-2.204-2.488
		c0,0-0.034-0.036-0.034-0.071V17.36c0-0.035,0.034-0.07,0.034-0.07h0.284c0.037,0,0.037-0.035,0.037-0.07v-0.641
		c0-0.036-0.037-0.071-0.037-0.071h-2.418c-0.034,0-0.034,0.035-0.034,0.071v0.64c0,0.035,0.034,0.07,0.034,0.07h0.286
		c0.035,0,0.035,0.036,0.035,0.07v1.64c0,0.07-0.035,0.106-0.07,0.035L68.249,15.8c-0.035,0-0.07,0-0.07,0l-6.966,7.82
		c-0.035,0.035,0,0.107,0.034,0.107h1.564c0.034,0,0.034,0.036,0.034,0.07v7.536h3.379v-4.159c0-1.386,0.781-2.523,1.74-2.523
		c0.961,0,1.742,1.138,1.742,2.523v4.159L73.546,31.334L73.546,31.334z"/>
	<g>
		<path fill="#FFFFFF" d="M77.121,38.011v12.62h5.99v-7.679c0-2.458,1.387-4.477,3.088-4.477s3.088,2.018,3.088,4.477v7.679h6.809
			V38.077L86.687,27.48L77.121,38.011z"/>
		<path fill="#FFFFFF" d="M77.121,50.631H77.06C77.06,50.631,77.121,50.694,77.121,50.631z"/>
		<path fill="#FFFFFF" d="M98.996,36.648l-3.908-4.413c0,0-0.063-0.063-0.063-0.125v-7.566c0-0.063,0.063-0.125,0.063-0.125h0.503
			c0.064,0,0.064-0.063,0.064-0.125v-1.135c0-0.063-0.064-0.126-0.064-0.126h-4.285c-0.063,0-0.063,0.063-0.063,0.126v1.135
			c0,0.063,0.063,0.125,0.063,0.125h0.505c0.063,0,0.063,0.063,0.063,0.125v3.908c0,0.126-0.063,0.189-0.126,0.063l-5.044-5.736
			c-0.064,0-0.126,0-0.126,0L74.222,36.648c-0.064,0.063,0,0.189,0.063,0.189h2.053l10.361-11.405l10.128,11.405h2.106
			C98.996,36.837,99.058,36.71,98.996,36.648z"/>
	</g>
	<path fill="#FFFFFF" d="M80.424,13.625c-0.391,0.403-0.822,0.826-1.34,1.061c-0.304,0.138-0.618,0.173-0.946,0.09
		c-0.292-0.075-0.566-0.22-0.821-0.379c-0.391-0.247-0.781-0.473-1.227-0.607c-0.548-0.165-1.143-0.187-1.697-0.026
		c-0.518,0.149-0.978,0.454-1.324,0.867c-0.296,0.353-0.557,0.818-0.597,1.285c0.573-0.356,1.234-0.696,1.921-0.733
		c0.418-0.023,0.822,0.08,1.199,0.257c0.271,0.128,0.521,0.293,0.776,0.45c0.831,0.508,1.907,0.712,2.799,0.235
		c0.455-0.244,0.81-0.652,1.025-1.121C80.381,14.588,80.496,14.081,80.424,13.625z"/>
</g>
</svg>
