<?xml version="1.0" encoding="utf-8"?>
<!-- Generator: Adobe Illustrator 13.0.2, SVG Export Plug-In . SVG Version: 6.00 Build 14948)  -->
<!DOCTYPE svg PUBLIC "-//W3C//DTD SVG 1.1//EN" "http://www.w3.org/Graphics/SVG/1.1/DTD/svg11.dtd">
<svg version="1.1" id="Layer_1" xmlns="http://www.w3.org/2000/svg" xmlns:xlink="http://www.w3.org/1999/xlink" x="0px" y="0px"
	 width="100px" height="100px" viewBox="0 0 100 100" enable-background="new 0 0 100 100" xml:space="preserve">
<rect fill="none" width="100" height="100"/>
<path fill="#FFFFFF" d="M80.776,71.742c-6.437,7.772-13.408,14.89-22.661,19.411c-9.447,4.616-18.912,5.133-28.636,0.907
	c-2.666-1.157-4.701-2.801-5.7-5.479c-1.036-2.775-2.781-4.563-5.71-5.235c-3.904-0.896-6.32-3.46-8.245-6.921
	C2.887,61.953,3.896,49.601,10.45,37.522c1.647-3.032,4.631-5.433,7.294-7.797c4.298-3.813,8.311-7.83,11.948-12.308
	C39.418,5.443,54.984,1.793,69.219,7.762c1.513,0.633,3.282,0.758,4.951,0.881c1.417,0.105,2.856-0.233,4.284-0.202
	c3.773,0.083,5.361,1.05,6.049,4.775c0.776,4.22,2.718,7.69,5.002,11.214c3.883,5.986,5.077,12.735,4.146,19.792
	c-1.203,9.123-4.118,17.551-10.403,24.541C82.388,69.725,81.601,70.749,80.776,71.742z M27.208,75.893
	c0.191,0.157,0.382,0.313,0.573,0.471c1.403-1.195,2.94-2.267,4.177-3.61c2.223-2.427,4.207-5.066,6.39-7.528
	c4.363-4.925,8.779-9.806,13.201-14.679c7.539-8.306,14.063-17.382,20.291-26.681c1.639-2.449,3.089-5.019,4.627-7.533
	c-4.664,4.166-8.841,8.629-13.145,12.968c-1.805,1.819-3.702,3.655-5.862,4.99c-5.635,3.482-9.981,8.163-13.398,13.716
	C38.368,57.257,32.818,66.593,27.208,75.893z M20.569,57.362c0.157,0.162,0.312,0.321,0.468,0.48
	c0.808-0.758,1.675-1.465,2.415-2.287c3.575-3.984,7.115-8,10.666-12.003c1.902-2.143,3.338-4.19,3.363-7.135
	c-0.258-0.258-1.521,1.504-2.088,2.257c-1.027,1.359-1.94,2.903-3.241,3.938C27.083,46.637,24.031,52.146,20.569,57.362z
	 M58.498,72.675c1.037-1.304,2.58-2.216,3.938-3.241c0.753-0.57,1.605-1.005,2.686-1.662c-2.947,0.025-5.422,1.036-7.563,2.936
	c-4.003,3.55-8.02,7.09-12.005,10.667c-0.821,0.735-1.528,1.605-2.288,2.413c0.16,0.157,0.319,0.312,0.479,0.469
	C48.964,80.795,54.474,77.742,58.498,72.675z M29.94,30.975c0.155,0.249,0.307,0.496,0.462,0.746
	c4.827-2.64,9.876-4.903,13.624-9.251c1.457-1.69,3.192-3.146,4.831-4.673c0.6-0.562,1.294-1.023,1.946-1.532
	c-3.07,0.492-5.641,1.732-7.752,3.995c-1.594,1.705-3.41,3.226-5.234,4.694C35.244,27.025,32.571,28.974,29.94,30.975z
	 M66.424,55.095c0.204,0.212,0.406,0.419,0.608,0.631c4.163-3.595,8.619-6.87,11.37-11.911c1.07-1.957,2.461-3.749,3.738-5.586
	c0.469-0.675,2.012-1.479,1.581-1.909c-0.43-0.43-5.149,2.882-6.739,5.537c-1.197,2.004-2.653,3.873-4.127,5.693
	C70.775,50.116,68.576,52.584,66.424,55.095z"/>
</svg>
