<?xml version="1.0" encoding="utf-8"?>
<!-- Generator: Adobe Illustrator 13.0.2, SVG Export Plug-In . SVG Version: 6.00 Build 14948)  -->
<!DOCTYPE svg PUBLIC "-//W3C//DTD SVG 1.1//EN" "http://www.w3.org/Graphics/SVG/1.1/DTD/svg11.dtd">
<svg version="1.1" id="Layer_1" xmlns="http://www.w3.org/2000/svg" xmlns:xlink="http://www.w3.org/1999/xlink" x="0px" y="0px"
	 width="100px" height="100px" viewBox="0 0 100 100" enable-background="new 0 0 100 100" xml:space="preserve">
<g>
	<rect fill="none" width="100" height="100"/>
</g>
<g>
	<path fill="#FFFFFF" d="M77.963,30.149c-1.579-4.422-4.106-7.266-7.792-7.055v-0.105c-1.053-5.055-2.948-8.635-5.476-10.214
		c-1.368-0.842-2.948-1.159-4.527-0.842c-2.633,0.631-4.845,2.948-6.003,4.422c-0.211,0.21-0.421,0.526-0.632,0.947
		c-0.104,0.211-0.21,0.316-0.21,0.316c0,0.105-0.105,0.211-0.105,0.211c-1.053,2.316-2.212,7.476,0.315,17.69
		c2.844,11.794,0,14.006,0,14.006s-4.949-6.739-7.159-10.215c-2.107-3.475-2.001-9.688-1.791-12.846
		c0.105-1.264,1.474-7.372,1.896-8.951c0-0.105,0-0.105,0-0.211s0-0.315-0.104-0.421c-0.106-0.21-2.528-5.58-6.424-6.212
		c-1.895-0.316-3.685,0.421-5.476,2.317c-5.896,6.212-5.16,15.058-4.949,16.532c-0.316,0-0.738,0-1.054,0.105
		c-0.631,0-1.263,0.211-1.79,0.526c-0.843,0.421-1.474,0.948-2.212,1.791c-0.525,0.632-0.947,1.369-1.368,2.106
		c-1.369-0.632-5.476-2.106-9.055-0.421c-2.528,1.159-4.212,3.475-5.055,7.055C6.253,51.421,8.044,60.477,8.044,60.897
		c0.106,0.421,0.421,0.632,0.842,0.632h0.106c0.421-0.105,0.737-0.526,0.632-0.948c0-0.104-1.685-9.16,0.842-19.48
		c0.737-3.054,2.211-4.949,4.212-5.896c2.948-1.369,6.634-0.105,7.792,0.421c-0.315,0.632-0.526,1.369-0.843,2.211
		c-3.054,9.056-0.947,31.696-0.842,32.643c0,0.421,0.421,0.737,0.842,0.737c0,0,0,0,0.105,0c0.422,0,0.738-0.421,0.738-0.843
		c0-0.211-1.685-18.321-0.105-28.431c0.105-0.632,0.21-1.264,0.421-1.896c0.104-0.527,0.315-1.158,0.42-1.58
		c1.263-3.685,2.632-5.896,4.212-6.738c0.106,0,0.211-0.105,0.316-0.105c0.736-0.21,1.474-0.316,2.21-0.21
		c0.633,0.104,1.264,0.316,2.001,0.631c0.106,0,0.211,0,0.315,0c3.054,1.264,6.318,4.317,9.267,7.582
		c-2.316,1.159-6.212,4.422-7.477,13.374c-1.79,12.531,0,22.112,0.106,22.428c0.105,0.423,0.421,0.633,0.843,0.633h0.105
		c0.42-0.104,0.737-0.526,0.631-0.948c0-0.104-1.79-9.688-0.104-21.902c1.263-8.845,5.054-11.583,6.95-12.319
		c2,2.421,3.792,4.949,5.159,7.055c4.108,6.528-1.895,29.063-1.263,41.699c0.105,0.948,0.843,1.79,1.895,1.79h5.687
		c1.054,0,1.896-0.842,1.896-1.79c0.105-5.371,0.633-21.165,2.316-26.642c2.107-6.738,2.738-16.427,0.948-23.587v-0.105
		c0.843-2.317,2.317-6.107,4.423-9.161c1.79,0.948,4.95,3.791,6.213,12.215c1.79,12.214,0,26.641-0.105,26.851
		c-0.104,0.422,0.21,0.843,0.737,0.947h0.105c0.42,0,0.737-0.315,0.843-0.736c0-0.105,1.895-14.742,0.105-27.273
		c-1.264-8.74-4.635-12.004-6.74-13.268c1.475-1.791,3.159-3.159,5.159-3.265c4.634-0.316,7.161,5.265,8.53,12.741
		c0.631,4.949,1.368,14.953,0.315,33.696c0,0.421,0.315,0.843,0.736,0.843l0,0c0.422,0,0.738-0.315,0.843-0.737
		c1.474-28.01-0.631-36.645-1.158-38.329c-0.21-0.737-0.316-1.474-0.526-2.106c1.264-0.421,4.633-1.053,8.003,3.159
		c5.793,7.266,2.845,30.643,2.738,30.853c-0.105,0.421,0.211,0.843,0.737,0.948h0.104c0.422,0,0.738-0.316,0.843-0.736
		c0.105-0.949,3.159-24.326-3.159-32.118C83.86,28.886,79.648,29.518,77.963,30.149z M31.104,29.834c0-0.105,0-0.105,0-0.211
		c0-0.105-1.159-9.266,4.528-15.374c1.369-1.474,2.737-2.106,4.001-1.895c2.422,0.421,4.316,3.58,4.949,4.738
		c-1.58,2.948-4.739,10.214-3.37,18.217C41.318,35.415,36.054,30.887,31.104,29.834z M57.852,34.151v0.527
		c-1.791-5.371-4.107-11.583-3.37-15.795c0.105-0.105,0.105-0.105,0.211-0.211c0,0,2.527-4.212,5.791-4.949
		c1.159-0.316,2.213-0.105,3.265,0.632c1.474,0.948,3.58,3.264,4.845,9.161C61.325,25.095,57.852,34.151,57.852,34.151z"/>
	<path fill="#FFFFFF" d="M41.213,48.577c0,0,0.632-0.632,0.21-2.527c-0.421-2.106-1.685-2.106-1.895-2.106
		c-0.21,0.21-0.842,1.369-0.105,2.843C40.266,48.366,41.213,48.577,41.213,48.577z"/>
	<path fill="#FFFFFF" d="M37.107,42.47c-0.105-0.105-0.947-1.159-2.843-0.21c-1.684,0.842-1.79,1.79-1.79,1.79
		s0.738,0.632,2.422,0.316C36.476,44.049,37.002,42.786,37.107,42.47z"/>
	<path fill="#FFFFFF" d="M37.002,49.946c-0.316,0.21-0.948,1.579-0.106,3.264c0.948,1.791,2.001,2.001,2.001,2.001
		s0.737-0.737,0.316-2.844C38.687,49.946,37.212,50.052,37.002,49.946z"/>
	<path fill="#FFFFFF" d="M30.789,50.367c-1.158,1.79-0.843,2.738-0.843,2.738s1.159,0.21,2.634-1.053
		c1.368-1.159,1.263-2.738,1.053-3.055C33.527,48.894,32.158,48.366,30.789,50.367z"/>
	<path fill="#FFFFFF" d="M35.843,58.159c-0.21,0.316-0.737,1.791,0.421,3.37c1.264,1.685,2.422,1.685,2.422,1.685
		s0.632-0.843-0.21-2.948C37.634,57.844,36.054,58.159,35.843,58.159z"/>
	<path fill="#FFFFFF" d="M29.314,62.583c0,0,1.159,0,2.528-1.58c1.264-1.475,0.842-3.054,0.631-3.37
		c-0.211,0-1.685-0.422-2.738,2.001C28.683,61.634,29.314,62.583,29.314,62.583z"/>
	<path fill="#FFFFFF" d="M36.476,69.743c1.685,1.79,3.053,1.79,3.053,1.79s0.632-1.054-0.632-3.476
		c-1.369-2.738-3.16-2.211-3.37-2.211C35.422,66.162,35.001,68.058,36.476,69.743z"/>
	<path fill="#FFFFFF" d="M31.526,69.848c1.263-1.896,0.632-3.791,0.316-4.106c-0.316,0-2.106-0.21-3.055,2.738
		c-0.842,2.632-0.105,3.579-0.105,3.579S30.052,71.954,31.526,69.848z"/>
	<path fill="#FFFFFF" d="M36.686,74.06c-0.21,0.422-0.526,2.527,1.369,4.316c2,1.896,3.58,1.686,3.58,1.686s0.526-1.263-0.948-3.791
		C38.897,73.217,37.002,74.06,36.686,74.06z"/>
	<path fill="#FFFFFF" d="M29.314,78.061c-0.737,2.949,0.211,4.002,0.211,4.002s1.579-0.21,2.948-2.737
		c1.264-2.212,0.315-4.213,0-4.528C32.158,74.797,30.157,74.692,29.314,78.061z"/>
	<path fill="#FFFFFF" d="M35.317,78.799c-0.315,0.315-2.528,1.579-0.948,5.686c1.368,3.581,3.159,4.002,3.159,4.002
		s1.474-1.369,1.053-4.845C38.265,80.272,35.948,78.904,35.317,78.799z"/>
	<path fill="#FFFFFF" d="M21.944,72.901c-0.211,0.21-2.001,1.264-0.738,4.528c1.159,2.843,2.423,3.159,2.423,3.159
		s1.157-1.054,0.841-3.896C24.365,74.06,22.47,73.007,21.944,72.901z"/>
	<path fill="#FFFFFF" d="M31,35.415c-1.369,1.474-1.159,2.632-1.159,2.632s0.948,0.421,2.844-0.737
		c2.106-1.264,1.579-2.632,1.579-2.843C33.843,34.256,32.263,34.046,31,35.415z"/>
	<path fill="#FFFFFF" d="M35.106,27.412c-1.579-1.474-2.633-1.264-2.633-1.264s-0.42,1.053,0.632,2.843
		c0.947,1.58,2.527,1.685,2.842,1.58C36.054,30.36,36.896,29.097,35.106,27.412z"/>
	<path fill="#FFFFFF" d="M27.313,32.361c-0.316,0.105-1.263,1.053-1.052,2.632c0.21,1.685,1.052,2.211,1.052,2.211
		s0.738-0.421,1.053-2.211C28.683,32.888,27.525,32.466,27.313,32.361z"/>
	<path fill="#FFFFFF" d="M22.891,31.097c1.579,0.211,2.528-0.737,2.633-1.053c-0.105-0.21-0.42-1.369-2.633-1.158
		c-1.895,0.21-2.316,1.053-2.316,1.053S21.101,30.781,22.891,31.097z"/>
	<path fill="#FFFFFF" d="M26.261,42.891c0,0,0.421-0.737-0.316-2.422c-0.947-2.001-2.106-1.579-2.316-1.579
		c-0.211,0.315-0.527,1.579,0.525,2.843C25.313,42.891,26.261,42.891,26.261,42.891z"/>
	<path fill="#FFFFFF" d="M19.1,40.153c1.475-0.632,1.685-2,1.685-2.316c-0.21-0.105-1.158-0.948-2.737,0.526
		c-1.474,1.264-1.369,2.106-1.369,2.106S17.521,40.891,19.1,40.153z"/>
	<path fill="#FFFFFF" d="M22.47,44.786c-0.21,0.316-0.632,1.79,0.42,3.265c1.264,1.58,2.317,1.58,2.317,1.58s0.526-0.843-0.21-2.844
		C24.154,44.47,22.681,44.786,22.47,44.786z"/>
	<path fill="#FFFFFF" d="M16.258,49.104c0,0,1.157,0,2.421-1.579c1.158-1.475,0.737-2.949,0.527-3.264
		c-0.21,0-1.685-0.316-2.632,1.895C15.625,48.261,16.258,49.104,16.258,49.104z"/>
	<path fill="#FFFFFF" d="M22.891,56.265c1.264,1.579,2.423,1.475,2.423,1.475s0.525-0.843-0.315-2.844
		C24.049,52.684,22.575,53,22.365,53C22.049,53.315,21.732,54.896,22.891,56.265z"/>
	<path fill="#FFFFFF" d="M16.363,54.79c-0.737,2-0.211,2.843-0.211,2.843s1.159,0,2.317-1.579c1.158-1.475,0.631-2.948,0.421-3.265
		C18.679,52.684,17.206,52.473,16.363,54.79z"/>
	<path fill="#FFFFFF" d="M18.258,65.109c1.264-1.896,0.631-3.791,0.315-4.106c-0.315,0-2.106-0.211-3.053,2.737
		c-0.843,2.633-0.105,3.58-0.105,3.58S16.784,67.11,18.258,65.109z"/>
	<path fill="#FFFFFF" d="M23.312,61.003c-0.315,0.315-0.947,2.211,0.317,4.106c1.369,2.105,2.842,2.211,2.842,2.211
		s0.737-1.053-0.105-3.58C25.418,60.688,23.629,61.003,23.312,61.003z"/>
	<path fill="#FFFFFF" d="M16.047,73.111c-0.737,2.949,0.211,4.002,0.211,4.002s1.579-0.211,2.948-2.737
		c1.264-2.212,0.316-4.213,0-4.528C18.89,69.953,16.784,69.743,16.047,73.111z"/>
	<path fill="#FFFFFF" d="M13.835,37.205c-0.632,1.58-0.209,2.527-0.209,2.527s0.841,0.105,2-1.474
		c1.369-1.685,0.421-2.633,0.421-2.843C15.731,35.415,14.467,35.73,13.835,37.205z"/>
	<path fill="#FFFFFF" d="M12.888,32.15c1.264,1.053,2.527,0.632,2.844,0.421c0-0.21,0.315-1.475-1.685-2.211
		c-1.79-0.737-2.528-0.211-2.528-0.211S11.519,31.097,12.888,32.15z"/>
	<path fill="#FFFFFF" d="M12.782,46.05c0,0,0.844-0.632,0.633-2.738c-0.106-2.421-1.581-2.632-1.791-2.738
		c-0.316,0.211-1.159,1.475-0.631,3.265C11.729,45.628,12.782,46.05,12.782,46.05z"/>
	<path fill="#FFFFFF" d="M8.57,39.1c-0.211-0.105-1.474-0.842-3.053,1.053c-1.475,1.685-1.159,2.633-1.159,2.633
		s1.053,0.315,2.738-0.738C8.675,40.995,8.675,39.416,8.57,39.1z"/>
	<path fill="#FFFFFF" d="M5.517,52.684c1.264-1.896,0.631-3.58,0.316-3.896c-0.211,0-2.001-0.211-2.949,2.633
		c-0.843,2.526-0.105,3.475-0.105,3.475S4.148,54.685,5.517,52.684z"/>
	<path fill="#FFFFFF" d="M10.782,52.684c1.369,2.001,2.738,2.106,2.738,2.106s0.737-0.948-0.105-3.475
		c-0.949-2.843-2.738-2.527-2.949-2.633C10.15,49.104,9.518,50.788,10.782,52.684z"/>
	<path fill="#FFFFFF" d="M93.231,52.895c-0.315,0.315-0.947,2.106,0.316,3.896c1.368,2.002,2.738,2.106,2.738,2.106
		s0.736-0.947-0.106-3.475C95.232,52.684,93.442,53,93.231,52.895z"/>
	<path fill="#FFFFFF" d="M10.15,58.055c-0.211,0.421-0.526,2.316,1.263,4.001c1.896,1.685,3.264,1.474,3.264,1.474
		s0.527-1.158-0.947-3.475C12.151,57.317,10.466,58.055,10.15,58.055z"/>
	<path fill="#FFFFFF" d="M3.41,61.74c-0.631,2.738,0.211,3.685,0.211,3.685s1.474-0.211,2.737-2.526
		c1.158-2.106,0.317-3.896,0-4.213C6.042,58.686,4.148,58.581,3.41,61.74z"/>
	<path fill="#FFFFFF" d="M9.203,63.003c-0.211,0.211-2.001,1.264-0.737,4.528c1.159,2.843,2.528,3.159,2.528,3.159
		s1.158-1.158,0.841-3.896C11.625,64.161,9.729,63.003,9.203,63.003z"/>
	<path fill="#FFFFFF" d="M70.908,30.781c-2.001-0.947-2.632,0.105-2.844,0.316c0,0.316,0.633,1.58,2.213,1.791
		c1.684,0.316,2.422-0.421,2.422-0.421S72.699,31.624,70.908,30.781z"/>
	<path fill="#FFFFFF" d="M65.433,32.15c-0.211,0-1.475,0.105-1.79,2.211c-0.315,1.896,0.315,2.527,0.315,2.527
		s0.947-0.21,1.687-1.79C66.275,33.519,65.645,32.361,65.433,32.15z"/>
	<path fill="#FFFFFF" d="M75.542,41.522c0,0,0.21-0.948-1.158-2.632c-1.58-1.896-2.843-1.159-3.054-1.053
		c-0.105,0.316-0.105,1.896,1.474,2.949C74.488,41.838,75.542,41.522,75.542,41.522z"/>
	<path fill="#FFFFFF" d="M68.064,38.468c-0.21,0.105-1.685,0.211-1.896,2.633c-0.104,2.211,0.633,2.843,0.633,2.843
		s1.053-0.316,1.791-2.211C69.224,40.048,68.381,38.679,68.064,38.468z"/>
	<path fill="#FFFFFF" d="M72.909,47.103c-0.21,0.316-0.526,1.895,0.737,3.37c1.368,1.58,2.526,1.475,2.526,1.475
		s0.527-0.948-0.421-2.949C74.594,46.682,73.119,47.103,72.909,47.103z"/>
	<path fill="#FFFFFF" d="M85.335,50.052c0,0,0.525-0.948-0.422-2.949c-1.158-2.317-2.633-1.896-2.844-1.896
		c-0.211,0.316-0.525,1.896,0.738,3.37C84.176,50.052,85.335,50.052,85.335,50.052z"/>
	<path fill="#FFFFFF" d="M66.802,49.104c-0.737,2.106-0.105,2.949-0.105,2.949s1.158-0.105,2.316-1.791
		c1.054-1.579,0.526-3.053,0.315-3.369C69.118,46.893,67.644,46.682,66.802,49.104z"/>
	<path fill="#FFFFFF" d="M73.226,55.632c-0.211,0.422-0.738,2.212,0.735,4.003c1.581,1.895,2.949,1.895,2.949,1.895
		s0.632-1.053-0.421-3.58C75.225,55.211,73.436,55.632,73.226,55.632z"/>
	<path fill="#FFFFFF" d="M82.492,55.632c-0.212,0.422-0.738,2.212,0.736,4.003c1.579,1.895,2.948,1.895,2.948,1.895
		s0.632-1.053-0.421-3.58C84.492,55.105,82.702,55.632,82.492,55.632z"/>
	<path fill="#FFFFFF" d="M65.959,61.634c0,0,1.475,0,2.948-2.105c1.37-1.896,0.843-3.686,0.527-4.106
		c-0.316,0-2.106-0.316-3.159,2.527C65.222,60.581,65.959,61.634,65.959,61.634z"/>
	<path fill="#FFFFFF" d="M73.015,67.215c-0.315,0.316-1.159,2.317,0.104,4.529c1.475,2.315,2.948,2.525,2.948,2.525
		s0.947-1.053,0.105-3.896C75.331,67.005,73.33,67.215,73.015,67.215z"/>
	<path fill="#FFFFFF" d="M82.492,67.848c-0.317,0.315-1.158,2.315,0.105,4.528c1.474,2.316,2.948,2.526,2.948,2.526
		s0.946-1.052,0.104-3.896C84.808,67.742,82.808,67.952,82.492,67.848z"/>
	<path fill="#FFFFFF" d="M68.697,66.689c-0.316,0-2.212-0.736-3.896,2.211c-1.474,2.633-0.843,3.896-0.843,3.896
		s1.58,0.211,3.581-1.79C69.328,69.321,69.013,67.11,68.697,66.689z"/>
	<path fill="#FFFFFF" d="M70.277,71.427c-0.317,0.211-2.844,0.843-2.423,5.16c0.315,3.791,1.896,4.634,1.896,4.634
		s1.791-0.948,2.422-4.422C72.804,73.639,70.908,71.744,70.277,71.427z"/>
	<path fill="#FFFFFF" d="M79.858,74.797c-0.316,0.211-2.844,0.843-2.422,5.16c0.316,3.791,1.895,4.633,1.895,4.633
		s1.792-0.948,2.423-4.422C82.28,77.008,80.385,75.008,79.858,74.797z"/>
	<path fill="#FFFFFF" d="M84.598,29.518c1.895-0.632,2.315-1.685,2.315-1.685s-0.632-0.843-2.737-0.737
		c-2.422,0.105-2.632,1.58-2.737,1.791C81.544,29.097,82.808,30.044,84.598,29.518z"/>
	<path fill="#FFFFFF" d="M83.333,36.257c0,0,0.422-1.053-0.631-2.738c-0.948-1.579-2.527-1.684-2.844-1.579
		c-0.104,0.21-0.842,1.474,0.948,3.053C82.387,36.468,83.333,36.257,83.333,36.257z"/>
	<path fill="#FFFFFF" d="M94.706,37.731c0,0,0-1.053-1.896-2.211c-2.105-1.369-3.054-0.21-3.263-0.105
		c0,0.316,0.524,1.79,2.21,2.316C93.759,38.363,94.706,37.731,94.706,37.731z"/>
	<path fill="#FFFFFF" d="M94.391,46.893c1.896,0.526,2.843-0.105,2.843-0.105s0-1.053-1.896-2.211
		c-2.106-1.369-3.054-0.21-3.265-0.105C92.073,44.892,92.601,46.366,94.391,46.893z"/>
	<path fill="#FFFFFF" d="M86.598,36.994c-0.21,0.105-1.58,0.632-0.947,3.054c0.526,2.106,1.369,2.527,1.369,2.527
		s0.947-0.631,1.052-2.632C88.178,38.152,86.913,37.205,86.598,36.994z"/>
	<path fill="#FFFFFF" d="M92.601,64.688c-0.316,0.315-0.948,2.211,0.421,4.107c1.475,2.104,2.948,2.21,2.948,2.21
		s0.737-1.053-0.105-3.686C94.706,64.479,92.811,64.794,92.601,64.688z"/>
	<path fill="#FFFFFF" d="M89.757,68.163c-0.209,0.21-2.211,0.843-1.686,4.316c0.527,3.055,1.791,3.687,1.791,3.687
		s1.369-0.842,1.685-3.687C91.863,69.743,90.283,68.269,89.757,68.163z"/>
	<path fill="#FFFFFF" d="M53.533,16.25c0.316-0.106,1.58-1.053,1.474-2.949c-0.104-2-1.053-2.632-1.053-2.632
		s-0.946,0.316-1.474,2.527C51.954,15.618,53.323,16.144,53.533,16.25z"/>
	<path fill="#FFFFFF" d="M58.271,16.25c-1.79,0.526-2.316,2-2.316,2.316c0.211,0.105,1.158,1.264,3.265-0.105
		c1.79-1.159,1.895-2.211,1.895-2.211S60.272,15.618,58.271,16.25z"/>
	<path fill="#FFFFFF" d="M69.75,16.039c2.001,0.211,2.737-0.632,2.737-0.632s-0.211-0.948-2.316-1.79
		c-2.316-0.842-3.053,0.422-3.159,0.527C67.118,14.565,67.854,15.829,69.75,16.039z"/>
	<path fill="#FFFFFF" d="M66.485,18.882c-0.316-1.79-1.685-2.527-2-2.527c-0.105,0.21-1.369,0.947-0.315,3.264
		c0.946,2,1.895,2.105,1.895,2.105S66.696,20.883,66.485,18.882z"/>
	<path fill="#FFFFFF" d="M43.425,16.144c-0.106-0.315-1.159-1.263-2.738-0.842c-1.685,0.315-2.211,1.263-2.211,1.263
		s0.421,0.737,2.316,0.948C43.003,17.514,43.319,16.25,43.425,16.144z"/>
	<path fill="#FFFFFF" d="M45.531,14.144c0.104-0.105,1.368-0.527,0.947-2.632C46.057,9.616,45.32,9.3,45.32,9.3
		s-0.842,0.526-0.947,2.316C44.267,13.196,45.32,14.039,45.531,14.144z"/>
	<path fill="#FFFFFF" d="M34.474,16.987c-0.421,2,0.316,2.843,0.316,2.843s0.947-0.105,2-2c1.159-2.212,0-3.054-0.105-3.265
		C36.37,14.565,34.896,15.197,34.474,16.987z"/>
	<path fill="#FFFFFF" d="M32.053,13.407c1.895,0,2.737-1.264,2.842-1.685c-0.105-0.21-0.843-1.474-3.158-0.737
		c-2.107,0.631-2.423,1.579-2.423,1.579S30.052,13.407,32.053,13.407z"/>
	<path fill="#FFFFFF" d="M28.262,22.989c1.474-1.158,1.474-2.844,1.264-3.159c-0.211,0-1.58-0.737-3.054,1.369
		c-1.368,1.79-0.948,2.843-0.948,2.843S26.682,24.358,28.262,22.989z"/>
</g>
</svg>
