<?xml version="1.0" encoding="utf-8"?>
<!-- Generator: Adobe Illustrator 13.0.2, SVG Export Plug-In . SVG Version: 6.00 Build 14948)  -->
<!DOCTYPE svg PUBLIC "-//W3C//DTD SVG 1.1//EN" "http://www.w3.org/Graphics/SVG/1.1/DTD/svg11.dtd">
<svg version="1.1" id="Layer_1" xmlns="http://www.w3.org/2000/svg" xmlns:xlink="http://www.w3.org/1999/xlink" x="0px" y="0px"
	 width="100px" height="100px" viewBox="0 0 100 100" enable-background="new 0 0 100 100" xml:space="preserve">
<rect y="-0.486" fill="none" width="100" height="100"/>
<g>
	<path fill="#FFFFFF" d="M76.637,75.308c0,14.465-7.912,19.659-15.33,19.659c-2.225,0-7.791-0.494-11.627-5.194
		c-3.452,4.7-8.404,5.194-10.629,5.194c-7.661,0-14.838-5.194-14.838-19.659V19.059c0-6.181-1.358-8.526-4.318-9.518
		c-0.372-0.125-0.503-0.247-0.503-0.493c0-1.112,4.459-4.082,7.912-4.082c3.1,0,6.553,2.844,6.553,12.859v58.719
		c0,9.396,4.207,9.396,5.818,9.396c1.852,0,5.929,0,5.929-10.634V14.735c0-2.351-0.493-3.09-0.493-3.956
		c0-1.238,1.479-2.104,3.211-2.104c4.087,0,6.925,2.471,6.925,5.44v62.429c0,9.396,3.956,9.396,5.809,9.396
		c1.61,0,5.938,0,5.938-9.396V17.826c0-10.016,3.463-12.859,6.423-12.859c3.593,0,8.042,2.969,8.042,4.082
		c0,0.247-0.131,0.368-0.493,0.493c-3.221,0.992-4.328,3.337-4.328,9.518V75.308z"/>
</g>
</svg>
