<?xml version="1.0" encoding="utf-8"?>
<!-- Generator: Adobe Illustrator 13.0.2, SVG Export Plug-In . SVG Version: 6.00 Build 14948)  -->
<!DOCTYPE svg PUBLIC "-//W3C//DTD SVG 1.1//EN" "http://www.w3.org/Graphics/SVG/1.1/DTD/svg11.dtd">
<svg version="1.1" id="Layer_1" xmlns="http://www.w3.org/2000/svg" xmlns:xlink="http://www.w3.org/1999/xlink" x="0px" y="0px"
	 width="100px" height="100px" viewBox="0 0 100 100" enable-background="new 0 0 100 100" xml:space="preserve">
<g>
	<rect fill="none" width="100" height="100"/>
</g>
<path fill="#FFFFFF" d="M30.39,13.506c-3.491,16.076-10.929,19.65-17.276,26.681c7.576,0.855,10.98-2.115,15.742-3.839
	C24.771,44.775,18.793,51.01,9.851,53.814c3.54,1.963,9.132,1.875,17.276-0.767c-5.444,10.556-12.924,16.885-21.69,20.538
	c6.915-0.409,13.712-0.233,21.113-3.072v9.643c-1.636-1.631-3.855-2.72-7.306-3.351c4.763,2.653,4.528,4.446,5.874,7.335h-0.86
	c-1.435-1.117-2.731-2.11-3.703-4.262c-0.229,1.663,0.284,2.982,0.933,4.262h-0.62c-1.209-1.139-2.684-1.724-4.829-2.276
	c0.932,0.998,1.468,1.647,1.73,2.276H8.317v4.225h79.079v-4.225H76.456v-7.102c5.642,4.114,12.821,3.338,19.96,2.688
	c-8.475-3.846-14.239-9.318-19.385-15.164c6.306,1.843,12.582,3.934,19.385,1.536c-8.118-4.421-14.458-7.015-20.729-16.697
	c4.947,1.534,9.255,2.111,12.668,1.342c-5.868-5.989-13.126-10.16-15.931-20.153c-2.331,9.449-9.05,15.105-15.26,20.92
	c3.033,0.13,6.081,0.242,11.613-2.878c-4.006,4.509-6.227,10.029-12.861,13.052l4.416,5.185c2.009,0.343,4.581-0.221,7.869-1.923
	c-1.642,1.887-3.187,3.899-5.566,4.8l7.486,7.293v4.325L51.887,59.957L35.458,83.205l-2.571-2.326l-0.769,0.979V70.321l8.062,1.729
	l7.486-9.981c-5.272-2.344-8.595-5.468-11.327-8.829c5.863,1.325,11.581,3.343,18.426,0c-8.835-4.18-17.025-8.762-20.153-16.508
	c4.044,0.675,7.511,2.509,12.476,1.344C40.539,30.5,33.054,23.51,30.39,13.506z M50.952,64.856h1.9v19.206h-1.9V64.856z"/>
</svg>
