<?xml version="1.0" encoding="utf-8"?>
<!-- Generator: Adobe Illustrator 13.0.2, SVG Export Plug-In . SVG Version: 6.00 Build 14948)  -->
<!DOCTYPE svg PUBLIC "-//W3C//DTD SVG 1.1//EN" "http://www.w3.org/Graphics/SVG/1.1/DTD/svg11.dtd">
<svg version="1.1" id="Layer_1" xmlns="http://www.w3.org/2000/svg" xmlns:xlink="http://www.w3.org/1999/xlink" x="0px" y="0px"
	 width="100px" height="100px" viewBox="0 0 100 100" enable-background="new 0 0 100 100" xml:space="preserve">
<rect fill="none" width="100" height="100"/>
<g>
	<path fill="#FFFFFF" d="M77.119,66.246c6.734,1.967,13.441,4.199,20.707,1.641c-8.672-4.723-15.441-7.494-22.141-17.836
		c5.283,1.637,9.885,2.254,13.531,1.434c-6.27-6.397-14.018-10.852-17.014-21.525c-2.492,10.093-9.668,16.133-16.301,22.345
		c3.24,0.137,6.496,0.258,12.404-3.075c-4.279,4.815-6.65,10.711-13.736,13.94c0,0-3.361,2.111-6.91,2.563
		c-5.07-3.188-10.453-7.248-14.002-11.584c6.262,1.414,12.37,3.572,19.682,0c-9.438-4.465-18.187-9.357-21.525-17.633
		c4.32,0.721,8.023,2.679,13.326,1.436c-6.995-8.092-14.99-15.558-17.836-26.243C23.575,28.88,15.629,32.698,8.851,40.208
		c8.091,0.914,11.727-2.258,16.813-4.1c-4.364,9.001-10.748,15.66-20.298,18.656c3.78,2.098,9.753,2.004,18.452-0.818
		C18.004,65.219,10.015,71.98,0.65,75.883c7.385-0.439,14.647-0.252,22.552-3.283V82.9c-1.748-1.742-4.118-2.904-7.804-3.58
		c5.086,2.834,4.835,4.746,6.273,7.838h-0.918c-1.533-1.195-2.917-2.258-3.956-4.555c-0.244,1.775,0.303,3.186,0.996,4.555h-0.661
		c-1.292-1.221-2.868-1.844-5.159-2.436c0.996,1.068,3.053,4.053,3.332,4.729h19.688l0.07-0.043c0.017-0.73,0.85-4.26,1.392-5.615
		c-1.921,1.381-3.162,2.535-3.925,4.139l-0.035-0.09c-0.399-1.842-0.055-5.35-0.055-5.35l-3.288,2.227V72.395l8.609,1.846
		c0,0,15.021,2.006,21.802-2.279c-1.572-0.58-4.143-1.781-7.123-3.418c5.979,0.762,12.873-0.656,15.25-1.889
		C65.936,68.668,56.17,77.137,48.14,78.922c9.635,5.174,21.6,0.648,21.6,0.648v4.619l-0.008,3.654h6.773V79.57
		c6.025,4.395,15.275,2.479,22.145,0.037C88.883,76.402,82.617,72.488,77.119,66.246z"/>
</g>
</svg>
